<svg version="1.1" xmlns="http://www.w3.org/2000/svg" viewBox="0 0 836.632974551711 221.87737429264786" width="836.632974551711" height="221.87737429264786">
  <!-- svg-source:excalidraw -->
  
  <defs>
    <style class="style-fonts">
      @font-face {
        font-family: "Virgil";
        src: url("https://excalidraw.com/Virgil.woff2");
      }
      @font-face {
        font-family: "Cascadia";
        src: url("https://excalidraw.com/Cascadia.woff2");
      }
    </style>
  </defs>
  <rect x="0" y="0" width="836.632974551711" height="221.87737429264786" fill="#ffffff"></rect><g stroke-linecap="round" transform="translate(33.91104555481843 39.080812866210636) rotate(0 20.287525848468135 21.480909721907352)"><path d="M0.94 1.23 C13.81 1.81, 30.98 2.18, 40.19 -1.23 M0.27 -0.98 C9.35 0.56, 18.71 -0.01, 40.65 -0.54 M40.75 -1.04 C42.33 10.74, 40.4 19.94, 41.2 43.31 M40.62 0.85 C40.96 15.83, 40.07 30.21, 39.8 43.34 M41.88 42.15 C24.74 41.73, 12.12 45.13, 1.77 42.22 M39.58 42.71 C33 43.36, 23.45 42.24, 0.68 42 M-1.6 43.69 C0.59 29.56, -1.97 12.15, 1.02 -0.86 M-0.18 43.4 C-0.79 27.83, 0.85 11.53, -0.72 -0.41" stroke="#000000" stroke-width="4" fill="none"></path></g><g stroke-linecap="round" transform="translate(74.48609725174538 39.080812866210636) rotate(0 20.5 21.480909721907352)"><path d="M1.23 -1.8 C10.34 -0.44, 19.46 -0.58, 39.77 -1.42 M-0.98 0.05 C13.34 0.01, 25.8 -0.04, 40.46 -0.78 M39.96 1.54 C41.92 14.69, 41.59 30.81, 41.35 44.16 M41.85 0.71 C41.09 9.47, 40.01 18.53, 41.38 43.68 M40.19 42.23 C30.98 44.97, 25.94 45, -0.74 41.15 M40.75 43.88 C26.28 42.43, 9.66 43.24, -0.96 43.36 M0.73 43.54 C1.6 28.17, -1.21 18.36, -0.86 1.18 M0.43 42.13 C-0.12 31.3, -1 17.31, -0.41 -0.36" stroke="#000000" stroke-width="4" fill="none"></path></g><g stroke-linecap="round" transform="translate(115.11584570955415 39.080812866210636) rotate(0 20.287525848468135 21.480909721907352)"><path d="M-1.8 1.59 C9.76 1.72, 19.62 -1.48, 39.16 0.36 M0.05 0.31 C9.77 0.14, 19.37 -0.14, 39.8 0.51 M42.11 1.2 C40.21 10.96, 41.24 20.53, 41.77 41.45 M41.28 0.38 C40.42 9.31, 39.82 20.42, 41.3 42.02 M39.84 41.39 C26.73 44.62, 11.18 42.06, -1.81 44.52 M41.49 43.74 C32.08 42.52, 24.53 41.9, 0.4 42.94 M0.58 44.15 C-1.64 32.57, 1.36 24.57, 1.18 -0.2 M-0.83 43.25 C0.89 25.41, -0.64 8.62, -0.36 0.76" stroke="#000000" stroke-width="4" fill="none"></path></g><g stroke-linecap="round" transform="translate(155.69089740648565 39.080812866210636) rotate(0 20.287525848468135 21.480909721907352)"><path d="M1.59 -0.25 C16.04 -0.02, 26.92 -1.05, 40.93 -1.24 M0.31 0.12 C13.02 0.05, 26.02 -0.8, 41.09 -0.65 M41.77 -0.4 C41.22 13.89, 40.7 27.71, 39.07 41.63 M40.95 -0.18 C40.24 12.32, 41.32 26.92, 39.63 43.8 M39 44.7 C27.58 44.58, 10.2 41, 1.56 41.09 M41.36 42.83 C32.1 44.02, 23.35 43.73, -0.02 42 M1.19 40.98 C-1.78 34.54, -1.02 25.26, -0.2 1.9 M0.29 43.77 C-0.78 30.15, -0.6 18.41, 0.76 0.15" stroke="#000000" stroke-width="4" fill="none"></path></g><g stroke-linecap="round" transform="translate(33.91104555481843 82.28922841105305) rotate(0 20.287525848468135 21.480909721907352)"><path d="M-0.25 1.97 C14.28 -1.55, 27.91 0.04, 39.33 0.55 M0.12 -0.26 C8.26 -0.66, 15.59 0.39, 39.92 0.09 M40.17 0.86 C41.53 10.99, 42.1 19.78, 39.24 43.06 M40.4 -0.7 C40.1 16.91, 41.6 32.12, 41.42 43.61 M42.32 44.79 C31.83 41.9, 17.72 44.2, -1.88 40.97 M40.45 42.62 C30.09 42.31, 18.63 43.26, -0.96 42.16 M-1.98 41.34 C0.89 27.65, 1.05 13.86, 1.9 -0.37 M0.81 42.37 C-0.36 27.8, 0 14.22, 0.15 0.27" stroke="#000000" stroke-width="4" fill="none"></path></g><g stroke-linecap="round" transform="translate(74.48609725174538 82.28922841105305) rotate(0 20.287525848468135 21.480909721907352)"><path d="M1.97 -0.39 C7.28 -1.37, 17.39 -1.19, 41.12 -1.96 M-0.26 0.07 C11.84 -0.83, 25.27 -0.7, 40.66 -0.52 M41.44 0.63 C41.18 17.39, 39.33 31.05, 40.67 44.66 M39.87 -0.77 C41.12 16.65, 39.8 32.69, 41.23 42.55 M42.4 44.73 C29.15 41.5, 20.77 41.44, -1.99 42.47 M40.23 43.64 C23.71 43.31, 8.75 41.95, -0.8 43.33 M-1.63 43.98 C-1.12 30.01, -0.45 16.6, -0.37 0.87 M-0.59 42.25 C-0.54 33.27, 0.64 24.45, 0.27 -0.95" stroke="#000000" stroke-width="4" fill="none"></path></g><g stroke-linecap="round" transform="translate(115.11584570955415 82.28922841105305) rotate(0 20.287525848468135 21.480909721907352)"><path d="M-0.39 -1.23 C13.98 -0.04, 29.55 0.15, 38.61 0.1 M0.07 -0.54 C12.64 0.62, 26.18 0.19, 40.05 0.77 M41.2 0.35 C41.68 13.96, 39.15 31.02, 42.27 44.38 M39.8 0.38 C41.22 13.57, 41.34 29.67, 40.17 42.59 M42.35 42.22 C29.78 44.89, 20.74 41.34, -0.49 44.8 M41.26 42 C25.63 42.8, 8.94 42.02, 0.36 43.25 M1.02 42.1 C1.6 27.32, 2.32 11.71, 0.87 -1.66 M-0.72 42.55 C-0.7 29.59, -0.2 14.97, -0.95 0.11" stroke="#000000" stroke-width="4" fill="none"></path></g><g stroke-linecap="round" transform="translate(155.69089740648565 82.28922841105305) rotate(0 20.287525848468135 21.480909721907352)"><path d="M-1.23 -1.42 C12.03 -1.17, 23.89 -1.89, 40.68 0.61 M-0.54 -0.78 C13.18 -0.68, 25.43 -0.55, 41.34 0.6 M40.92 1.2 C39.25 10.69, 40.86 25.75, 41.99 43.72 M40.96 0.72 C39.33 12.97, 40.92 23.85, 40.21 42.17 M39.83 41.15 C26.43 41.44, 7.17 42.83, 1.84 44.52 M39.61 43.36 C28.9 42.28, 16.47 43.6, 0.29 43.56 M-0.86 44.14 C0.15 36.23, -0.02 26.57, -1.66 0.58 M-0.41 42.6 C1.02 26.76, 0.53 9.3, 0.11 -0.69" stroke="#000000" stroke-width="4" fill="none"></path></g><g stroke-linecap="round" transform="translate(33.91104555481843 125.49764395589773) rotate(0 20.287525848468135 21.480909721907352)"><path d="M-1.42 0.36 C14.92 0.8, 30.36 0.35, 41.19 0.25 M-0.78 0.51 C10.46 0.3, 21.71 0.99, 41.17 -0.2 M41.77 -1.51 C39.37 14.84, 42.41 30.91, 41.33 42.61 M41.3 -0.94 C41.08 10.51, 39.84 19.36, 39.79 43.83 M38.76 44.52 C22.82 40.82, 8.33 44.65, 1.56 42.71 M40.97 42.94 C28.84 41.77, 19.39 42.86, 0.59 41.97 M1.18 42.77 C1.68 33.2, 0.65 22.52, 0.58 1.61 M-0.36 43.72 C0.46 32.88, -0.65 22.37, -0.69 0.16" stroke="#000000" stroke-width="4" fill="none"></path></g><g stroke-linecap="round" transform="translate(74.48609725174538 125.49764395589773) rotate(0 20.287525848468135 21.480909721907352)"><path d="M0.36 -1.24 C11.94 -1.68, 22.88 0.9, 40.82 -0.52 M0.51 -0.65 C12.56 -0.21, 25.72 0.92, 40.37 0.43 M39.07 -1.34 C40.75 15.94, 42.06 29.23, 40.22 41.55 M39.63 0.84 C41.39 9.16, 40.37 18.34, 41.45 43.87 M42.13 41.09 C22.82 42.1, 10.88 44.16, -0.26 42.27 M40.56 42 C24.83 43.49, 10.99 43.72, -0.99 42.15 M-0.2 44.86 C-0.18 28.75, -1.47 13.39, 1.61 -1.18 M0.76 43.11 C0.45 32.2, 0.29 22.64, 0.16 -0.63" stroke="#000000" stroke-width="4" fill="none"></path></g><g stroke-linecap="round" transform="translate(115.11584570955415 125.49764395589773) rotate(0 20.287525848468135 21.480909721907352)"><path d="M-1.24 0.55 C7.71 0.03, 19.96 0.17, 40.05 0.15 M-0.65 0.09 C9.46 0.56, 20.57 -0.41, 41.01 0.31 M39.24 0.1 C42.53 15.05, 41.59 26.92, 39.17 41.41 M41.42 0.65 C40.48 14.16, 40.1 29.93, 41.49 43.85 M38.7 40.97 C29.41 45.12, 20.79 43.02, -0.69 44.33 M39.62 42.16 C32.68 43.24, 24.65 41.96, -0.81 43.47 M1.9 42.59 C0.61 30.26, 0.32 22.49, -1.18 -1.43 M0.15 43.24 C-0.8 31.96, -0.54 20.89, -0.63 -0.55" stroke="#000000" stroke-width="4" fill="none"></path></g><g stroke-linecap="round" transform="translate(155.69089740648565 125.49764395589773) rotate(0 20.287525848468135 21.480909721907352)"><path d="M0.55 -1.96 C9.4 0.87, 18.83 -0.27, 40.72 -1.08 M0.09 -0.52 C9.78 0.86, 17.82 0.7, 40.89 0.17 M40.67 1.7 C41.67 16.21, 39.9 29.5, 39.03 43.72 M41.23 -0.41 C39.8 15.2, 41.04 32.89, 41.46 42.59 M38.58 42.47 C33.92 44.14, 23.33 41.89, 1.36 41.03 M39.77 43.33 C27.08 43.17, 12.02 41.76, 0.51 42.53 M-0.37 43.83 C-1.61 28.12, 1.66 10.94, -1.43 -0.83 M0.27 42.01 C-0.22 30.92, -0.17 19.63, -0.55 -0.08" stroke="#000000" stroke-width="4" fill="none"></path></g><g stroke-linecap="round" transform="translate(33.91104555481843 168.91555484883315) rotate(0 20.287525848468135 21.480909721907352)"><path d="M-1.96 0.1 C13.51 0.13, 25.27 0.04, 39.5 -1.56 M-0.52 0.77 C14.85 -0.23, 28.94 0.28, 40.75 0.6 M42.27 1.41 C41.04 9.3, 38.88 17.75, 41.34 44.4 M40.17 -0.37 C40.15 9.72, 41.85 18.58, 40.2 42.06 M40.08 44.8 C26.8 42.3, 9.21 43.92, -1.93 43.75 M40.94 43.25 C29.07 41.65, 15.57 43.15, -0.43 43.55 M0.87 41.31 C0.17 32.11, -1.59 16.59, -0.83 -0.72 M-0.95 43.07 C-0.76 26.96, -0.69 10.08, -0.08 -0.58" stroke="#000000" stroke-width="4" fill="none"></path></g><g stroke-linecap="round" transform="translate(74.48609725174538 168.91555484883315) rotate(0 20.287525848468135 21.480909721907352)"><path d="M0.1 0.61 C9.89 -0.12, 19.45 -0.68, 39.02 1.03 M0.77 0.6 C9.33 0.64, 19.38 0.39, 41.17 -0.75 M41.99 0.75 C40.24 8.61, 39.05 20.8, 42.02 41.08 M40.21 -0.79 C41.73 17.41, 41.74 32.63, 39.67 43.74 M42.41 44.52 C31.95 42.17, 25.21 40.93, 0.79 42.92 M40.86 43.56 C31.31 42.3, 24.53 42.68, 0.59 42.86 M-1.66 43.54 C1.69 24.82, -1.35 8.21, -0.72 1.52 M0.11 42.27 C0.04 28.8, -0.67 15.82, -0.58 0.59" stroke="#000000" stroke-width="4" fill="none"></path></g><g stroke-linecap="round" transform="translate(115.11584570955415 168.91555484883315) rotate(0 20.287525848468135 21.480909721907352)"><path d="M0.61 0.25 C12.76 0.13, 25.48 -1.58, 41.6 -1.3 M0.6 -0.2 C12.95 0, 25.21 0.29, 39.82 -0.67 M41.33 -0.35 C39.53 11.55, 41.7 27.64, 38.69 44.64 M39.79 0.87 C41.31 16.58, 40.03 30.47, 41.35 42.02 M42.14 42.71 C31.75 44.7, 22.39 44.13, -0.04 41.04 M41.17 41.97 C30.84 43.59, 22.31 43.67, -0.1 43.91 M0.58 44.58 C-1.37 29.43, -1.01 18.05, 1.52 0.3 M-0.69 43.12 C-0.22 28.34, 0.32 14.24, 0.59 -0.85" stroke="#000000" stroke-width="4" fill="none"></path></g><g stroke-linecap="round" transform="translate(155.69089740648565 168.91555484883315) rotate(0 20.287525848468135 21.480909721907352)"><path d="M0.25 -0.52 C8.34 -1.2, 14.81 0.9, 39.27 0.17 M-0.2 0.43 C10.37 -0.07, 20.7 -1, 39.91 0.05 M40.22 -1.41 C39.33 17.3, 42.32 31.18, 42.26 44.27 M41.45 0.91 C41.3 10.77, 39.51 23.06, 39.64 41.97 M40.32 42.27 C30.77 41.35, 19.03 43.24, -1.92 41.36 M39.58 42.15 C27.44 42.77, 13.87 43.11, 0.95 42.78 M1.61 41.78 C-1.08 27.39, -0.36 14.99, 0.3 0.55 M0.16 42.33 C-0.6 34.08, -0.63 25.96, -0.85 0.76" stroke="#c92a2a" stroke-width="4" fill="none"></path></g><g transform="translate(48.00187060119606 10.108570879139734) rotate(0 7 11.5)"><text x="0" y="16" font-family="Virgil, Segoe UI Emoji" font-size="17.99174568537061px" fill="#000000" text-anchor="start" style="white-space: pre;" direction="ltr">0</text></g><g transform="translate(92.71812583088013 10) rotate(0 3.5 11.5)"><text x="0" y="16" font-family="Virgil, Segoe UI Emoji" font-size="17.991745685370574px" fill="#000000" text-anchor="start" style="white-space: pre;" direction="ltr">1</text></g><g transform="translate(129.439322639799 10) rotate(0 7.5 11.5)"><text x="0" y="16" font-family="Virgil, Segoe UI Emoji" font-size="17.991745685370592px" fill="#000000" text-anchor="start" style="white-space: pre;" direction="ltr">2</text></g><g transform="translate(170.200495843824 10) rotate(0 7 11.5)"><text x="0" y="16" font-family="Virgil, Segoe UI Emoji" font-size="17.991745685370603px" fill="#000000" text-anchor="start" style="white-space: pre;" direction="ltr">3</text></g><g transform="translate(10.40327854508405 49.01099289479953) rotate(0 8 12.5)"><text x="0" y="18" font-family="Virgil, Segoe UI Emoji" font-size="19.865202406048674px" fill="#000000" text-anchor="start" style="white-space: pre;" direction="ltr">0</text></g><g transform="translate(14.436063995935001 91.93999401912197) rotate(0 3.5 12.5)"><text x="0" y="18" font-family="Virgil, Segoe UI Emoji" font-size="19.865202406048645px" fill="#000000" text-anchor="start" style="white-space: pre;" direction="ltr">1</text></g><g transform="translate(10 134.86899514344213) rotate(0 8 12.5)"><text x="0" y="18" font-family="Virgil, Segoe UI Emoji" font-size="19.865202406048653px" fill="#000000" text-anchor="start" style="white-space: pre;" direction="ltr">2</text></g><g transform="translate(10.201639272534521 177.79799626775753) rotate(0 8 12.5)"><text x="0" y="18" font-family="Virgil, Segoe UI Emoji" font-size="19.865202406048674px" fill="#000000" text-anchor="start" style="white-space: pre;" direction="ltr">3</text></g><g transform="translate(39.698571403286564 48.06172258811796) rotate(0 14.5 12.5)"><text x="14.5" y="18" font-family="Virgil, Segoe UI Emoji" font-size="20px" fill="#c92a2a" text-anchor="middle" style="white-space: pre;" direction="ltr">26</text></g><g transform="translate(79.27362310021351 48.06172258811796) rotate(0 15.5 12.5)"><text x="15.5" y="18" font-family="Virgil, Segoe UI Emoji" font-size="20px" fill="#000000" text-anchor="middle" style="white-space: pre;" direction="ltr">38</text></g><g transform="translate(120.90337155802229 48.06172258811796) rotate(0 14.5 12.5)"><text x="14.5" y="18" font-family="Virgil, Segoe UI Emoji" font-size="20px" fill="#000000" text-anchor="middle" style="white-space: pre;" direction="ltr">40</text></g><g transform="translate(162.97842325495378 48.06172258811796) rotate(0 13 12.5)"><text x="13" y="18" font-family="Virgil, Segoe UI Emoji" font-size="20px" fill="#000000" text-anchor="middle" style="white-space: pre;" direction="ltr">67</text></g><g transform="translate(40.698571403286564 91.27013813296037) rotate(0 13.5 12.5)"><text x="13.5" y="18" font-family="Virgil, Segoe UI Emoji" font-size="20px" fill="#000000" text-anchor="middle" style="white-space: pre;" direction="ltr">95</text></g><g transform="translate(80.77362310021351 91.27013813296037) rotate(0 14 12.5)"><text x="14" y="18" font-family="Virgil, Segoe UI Emoji" font-size="20px" fill="#c92a2a" text-anchor="middle" style="white-space: pre;" direction="ltr">63</text></g><g transform="translate(121.90337155802229 91.27013813296037) rotate(0 13.5 12.5)"><text x="13.5" y="18" font-family="Virgil, Segoe UI Emoji" font-size="20px" fill="#000000" text-anchor="middle" style="white-space: pre;" direction="ltr">94</text></g><g transform="translate(161.97842325495378 91.27013813296037) rotate(0 14 12.5)"><text x="14" y="18" font-family="Virgil, Segoe UI Emoji" font-size="20px" fill="#000000" text-anchor="middle" style="white-space: pre;" direction="ltr">39</text></g><g transform="translate(41.698571403286564 134.47855367780505) rotate(0 12.5 12.5)"><text x="12.5" y="18" font-family="Virgil, Segoe UI Emoji" font-size="20px" fill="#000000" text-anchor="middle" style="white-space: pre;" direction="ltr">97</text></g><g transform="translate(85.77362310021351 134.47855367780505) rotate(0 9 12.5)"><text x="9" y="18" font-family="Virgil, Segoe UI Emoji" font-size="20px" fill="#000000" text-anchor="middle" style="white-space: pre;" direction="ltr">17</text></g><g transform="translate(121.40337155802229 134.47855367780505) rotate(0 14 12.5)"><text x="14" y="18" font-family="Virgil, Segoe UI Emoji" font-size="20px" fill="#c92a2a" text-anchor="middle" style="white-space: pre;" direction="ltr">78</text></g><g transform="translate(161.97842325495378 134.47855367780505) rotate(0 14 12.5)"><text x="14" y="18" font-family="Virgil, Segoe UI Emoji" font-size="20px" fill="#000000" text-anchor="middle" style="white-space: pre;" direction="ltr">78</text></g><g transform="translate(39.198571403286564 177.89646457074048) rotate(0 15 12.5)"><text x="15" y="18" font-family="Virgil, Segoe UI Emoji" font-size="20px" fill="#000000" text-anchor="middle" style="white-space: pre;" direction="ltr">20</text></g><g transform="translate(81.27362310021351 177.89646457074048) rotate(0 13.5 12.5)"><text x="13.5" y="18" font-family="Virgil, Segoe UI Emoji" font-size="20px" fill="#000000" text-anchor="middle" style="white-space: pre;" direction="ltr">45</text></g><g transform="translate(121.40337155802229 177.89646457074048) rotate(0 14 12.5)"><text x="14" y="18" font-family="Virgil, Segoe UI Emoji" font-size="20px" fill="#000000" text-anchor="middle" style="white-space: pre;" direction="ltr">35</text></g><g transform="translate(165.97842325495378 177.89646457074048) rotate(0 10 12.5)"><text x="10" y="18" font-family="Virgil, Segoe UI Emoji" font-size="20px" fill="#c92a2a" text-anchor="middle" style="white-space: pre;" direction="ltr">14</text></g><g transform="translate(256.63297455171096 13.4386871463239) rotate(0 285 87.5)"><text x="0" y="18" font-family="Virgil, Segoe UI Emoji" font-size="20px" fill="#000000" text-anchor="start" style="white-space: pre;" direction="ltr">four situations:</text><text x="0" y="43" font-family="Virgil, Segoe UI Emoji" font-size="20px" fill="#000000" text-anchor="start" style="white-space: pre;" direction="ltr">1.  matrxi[0][0]*matrix[0][1]*matrix[0][2]*matrix[0][3]</text><text x="0" y="68" font-family="Virgil, Segoe UI Emoji" font-size="20px" fill="#000000" text-anchor="start" style="white-space: pre;" direction="ltr">2. matrxi[0][0]*matrix[1][0]*matrix[2][0]*matrix[3][0]</text><text x="0" y="93" font-family="Virgil, Segoe UI Emoji" font-size="20px" fill="#000000" text-anchor="start" style="white-space: pre;" direction="ltr">3. matrxi[0][0]*matrix[1][1]*matrix[2][2]*matrix[3][3]</text><text x="0" y="118" font-family="Virgil, Segoe UI Emoji" font-size="20px" fill="#000000" text-anchor="start" style="white-space: pre;" direction="ltr">4. matrxi[3][0]*matrix[2][1]*matrix[1][2]*matrix[0][3]</text><text x="0" y="143" font-family="Virgil, Segoe UI Emoji" font-size="20px" fill="#000000" text-anchor="start" style="white-space: pre;" direction="ltr"></text><text x="0" y="168" font-family="Virgil, Segoe UI Emoji" font-size="20px" fill="#000000" text-anchor="start" style="white-space: pre;" direction="ltr">it can be defined down,right, diagonally</text></g></svg>