<?xml version="1.0" standalone="no"?>
<!DOCTYPE svg PUBLIC "-//W3C//DTD SVG 20010904//EN"
 "http://www.w3.org/TR/2001/REC-SVG-20010904/DTD/svg10.dtd">
<svg version="1.0" xmlns="http://www.w3.org/2000/svg"
 width="1024.000000pt" height="1024.000000pt" viewBox="0 0 1024.000000 1024.000000"
 preserveAspectRatio="xMidYMid meet">
<metadata>
Created by potrace 1.14, written by Peter Selinger 2001-2017
</metadata>
<g transform="translate(0.000000,1024.000000) scale(0.100000,-0.100000)"
fill="#000000" stroke="none">
<path d="M5074 9532 c-19 -13 -74 -103 -69 -112 3 -5 0 -12 -8 -17 -13 -8 -37
-56 -37 -73 0 -6 6 -10 14 -10 10 0 9 -10 -7 -45 -14 -29 -27 -45 -39 -45 -14
0 -18 -8 -18 -38 0 -32 -5 -41 -26 -51 -18 -8 -25 -17 -21 -30 2 -9 -2 -26 -9
-36 -8 -10 -14 -39 -14 -64 -1 -48 -20 -138 -39 -181 -6 -14 -15 -65 -20 -113
-5 -51 -15 -95 -24 -105 -8 -9 -12 -23 -9 -31 2 -8 -4 -20 -14 -28 -17 -13
-18 -16 -4 -41 11 -18 14 -39 9 -65 -3 -21 -2 -40 3 -43 4 -3 8 -22 8 -43 0
-29 -5 -40 -19 -44 -17 -4 -18 -13 -15 -82 2 -62 7 -82 24 -100 18 -19 20 -30
14 -73 -6 -45 -10 -53 -40 -67 -19 -9 -34 -21 -34 -26 0 -6 -12 -26 -26 -45
-23 -29 -26 -41 -21 -79 5 -34 1 -55 -18 -98 -14 -30 -35 -63 -46 -73 -26 -24
-52 -72 -44 -84 3 -5 -19 -68 -50 -140 -30 -72 -55 -136 -55 -141 0 -19 -61
-132 -77 -144 -14 -10 -15 -17 -5 -41 6 -16 12 -42 14 -58 2 -24 9 -31 36 -38
29 -8 33 -13 30 -36 -2 -22 -8 -26 -27 -24 -13 1 -29 -2 -35 -7 -6 -4 -29 -12
-50 -16 -34 -6 -269 -120 -301 -145 -25 -20 -145 -56 -195 -58 -40 -2 -60 -8
-71 -22 -9 -11 -19 -16 -23 -13 -3 4 -6 0 -6 -7 0 -7 -15 -27 -32 -43 -20 -17
-26 -26 -15 -23 11 4 16 2 11 -5 -3 -6 -17 -8 -29 -5 -31 8 -55 -2 -55 -23 1
-14 2 -14 11 2 5 9 18 17 27 17 13 0 11 -6 -10 -26 -37 -38 -61 -27 -52 23 3
21 15 54 26 73 l20 35 -26 -28 c-14 -15 -30 -46 -37 -70 -16 -60 -50 -127 -64
-127 -30 0 -210 -132 -210 -154 0 -17 -30 -55 -89 -116 -29 -30 -57 -66 -61
-80 -4 -14 -23 -42 -41 -63 -19 -20 -34 -44 -34 -52 0 -7 -6 -18 -13 -22 -7
-4 -30 -32 -51 -60 -21 -29 -41 -53 -44 -53 -4 0 -13 -14 -20 -30 -8 -17 -27
-43 -43 -59 -16 -16 -29 -34 -29 -40 0 -6 -5 -11 -10 -11 -6 0 -26 -16 -46
-35 -24 -24 -30 -35 -19 -35 14 0 13 -4 -4 -26 -12 -15 -21 -35 -21 -44 0 -10
-19 -42 -41 -70 -30 -38 -38 -55 -29 -60 10 -6 8 -14 -6 -34 -11 -14 -23 -26
-28 -26 -13 0 -35 -32 -36 -51 0 -9 -10 -32 -23 -50 -13 -19 -32 -59 -42 -89
-10 -30 -19 -59 -21 -65 -2 -5 -12 -21 -21 -35 -17 -24 -17 -25 1 -10 18 14
19 13 13 -3 -4 -10 -7 -31 -7 -46 0 -15 -9 -38 -20 -51 -20 -23 -25 -36 -20
-55 4 -14 10 -65 11 -93 1 -12 6 -25 11 -28 5 -3 4 -11 -2 -19 -7 -8 -9 -27
-5 -47 4 -18 9 -76 12 -128 2 -52 9 -111 15 -130 11 -35 37 -159 41 -192 0
-10 5 -18 9 -18 4 0 8 -9 8 -20 0 -11 5 -20 10 -20 6 0 10 -14 10 -31 0 -17
-4 -28 -10 -24 -6 3 -10 -5 -10 -19 0 -14 5 -28 11 -31 6 -4 8 -14 5 -22 -4
-8 7 -32 25 -54 35 -44 35 -44 -19 -74 -20 -11 -37 -27 -38 -35 -1 -8 -2 -25
-2 -36 -2 -22 -47 -74 -64 -74 -6 0 -8 7 -4 15 8 22 -16 7 -89 -54 -33 -28
-75 -57 -92 -65 -18 -8 -33 -20 -33 -27 0 -6 -10 -21 -23 -33 -12 -12 -34 -36
-50 -55 -17 -20 -33 -31 -42 -27 -8 3 -14 2 -14 -2 3 -19 -3 -22 -22 -11 -12
6 -19 7 -15 1 8 -14 -4 -43 -15 -36 -5 3 -9 2 -8 -3 5 -20 -22 -62 -43 -68
-13 -4 -31 -14 -40 -22 -11 -10 -25 -12 -39 -8 l-23 8 23 19 c13 10 22 21 19
23 -3 3 -11 -1 -18 -10 -7 -8 -18 -15 -26 -15 -7 0 -25 -5 -41 -12 -15 -6 -31
-11 -35 -10 -5 1 -8 -7 -8 -18 0 -16 -6 -20 -33 -18 -23 2 -32 -1 -32 -12 0
-9 -17 -20 -40 -27 -50 -16 -48 -16 -42 1 3 7 1 18 -5 24 -8 8 -7 13 3 16 37
11 106 37 119 46 25 16 -4 36 -33 23 -14 -7 -69 -10 -132 -8 -81 3 -126 -1
-179 -15 -103 -26 -101 -26 -99 -14 3 16 -76 25 -100 12 -16 -8 -22 -7 -29 6
-5 9 -13 14 -18 11 -5 -3 -11 4 -15 15 -5 16 -12 19 -28 14 -39 -12 -47 -23
-35 -49 11 -25 52 -31 77 -11 12 9 13 8 8 -7 -4 -10 -7 -22 -7 -27 0 -10 -67
13 -82 28 -7 7 -16 12 -21 12 -6 0 2 -12 17 -26 30 -31 32 -40 11 -48 -8 -3
-15 0 -15 6 0 7 -5 7 -14 -2 -8 -6 -13 -17 -10 -24 7 -19 -46 -79 -60 -67 -6
5 -27 12 -46 16 -19 4 -39 11 -45 15 -14 10 -102 31 -117 28 -7 -2 -12 3 -10
10 1 6 -4 12 -11 12 -7 0 -23 11 -35 24 -18 21 -19 26 -6 36 29 25 1 28 -45 4
-41 -20 -50 -30 -55 -59 -9 -44 0 -58 29 -51 13 3 27 2 30 -4 3 -5 1 -10 -4
-10 -12 0 -15 -46 -3 -53 16 -10 60 6 65 23 4 16 10 17 38 10 41 -10 143 -53
112 -46 -13 2 -23 1 -23 -4 0 -4 21 -10 46 -14 26 -3 53 -11 60 -17 7 -6 46
-13 86 -15 40 -3 79 -7 86 -9 6 -2 12 2 12 10 0 11 12 15 44 15 34 0 45 4 48
18 8 27 92 51 200 57 51 3 127 7 168 10 55 3 68 1 51 -6 -13 -5 -21 -12 -18
-16 4 -3 18 2 31 11 14 9 38 16 54 16 16 0 35 6 41 14 9 10 20 12 40 6 18 -5
36 -3 52 6 13 7 34 13 45 14 12 0 27 7 34 15 7 8 16 15 21 15 13 0 129 56 163
79 16 11 34 17 40 15 6 -2 36 11 66 29 38 23 54 39 52 51 -3 14 1 16 16 12 20
-7 43 11 205 161 37 35 74 63 81 63 8 0 16 7 20 15 7 18 47 20 64 3 9 -9 12
-7 12 10 0 36 44 29 85 -14 19 -20 35 -40 35 -46 0 -6 11 -23 25 -40 59 -70
11 -64 -59 7 -59 61 -82 72 -44 23 13 -18 53 -52 89 -76 35 -23 64 -46 64 -50
0 -4 -4 -22 -9 -40 -10 -43 9 -65 69 -82 24 -7 53 -21 65 -32 11 -10 35 -25
53 -33 35 -15 77 -50 77 -65 0 -6 6 -10 13 -10 18 0 67 -23 67 -32 0 -14 65
-52 87 -50 13 1 23 -2 23 -6 0 -4 13 -16 30 -25 28 -17 29 -17 23 -1 -4 12 -3
15 5 10 7 -4 12 -13 12 -20 0 -8 14 -19 31 -26 36 -15 44 -16 82 -6 20 5 28 3
26 -6 -3 -28 2 -38 19 -38 10 0 23 -5 30 -12 9 -9 12 -7 12 10 0 15 9 26 27
33 23 9 30 7 45 -13 19 -25 23 -38 10 -38 -5 0 -13 9 -18 20 -8 19 -11 19 -29
7 -18 -14 -17 -16 23 -36 46 -23 51 -35 25 -50 -16 -9 -16 -13 -5 -32 8 -13
10 -24 4 -28 -5 -3 -11 -18 -14 -32 -3 -19 1 -30 16 -40 12 -7 26 -12 32 -11
6 1 17 -9 24 -23 7 -14 17 -25 20 -25 4 0 47 -32 95 -70 74 -59 93 -70 125
-70 21 0 40 -4 42 -9 5 -15 43 -18 40 -3 -1 6 5 12 13 12 8 0 12 -6 10 -12 -4
-9 7 -13 32 -13 21 -1 113 -4 205 -8 l167 -7 19 28 c10 15 22 35 25 45 4 9 11
17 16 17 6 0 8 -8 5 -17 -3 -11 5 -5 20 12 59 68 83 84 69 48 -12 -32 17 -3
31 31 13 31 17 33 79 40 41 4 92 19 138 40 60 27 86 33 136 32 33 -1 59 3 56
8 -8 12 39 2 115 -25 64 -22 64 -22 57 -56 -7 -37 4 -43 23 -13 16 26 75 27
100 2 10 -10 61 -40 113 -66 l96 -48 53 16 c39 12 57 13 66 5 21 -18 132 -1
194 29 30 15 75 49 100 76 25 27 65 67 88 90 24 23 50 52 57 66 8 14 30 42 51
63 21 21 38 46 39 55 1 25 15 43 26 37 5 -4 19 -3 30 0 18 6 20 12 14 43 -4
21 -11 39 -15 42 -5 3 3 30 18 60 15 30 35 74 45 98 16 35 23 42 47 42 16 0
32 5 35 10 3 5 14 10 25 10 10 0 20 7 23 15 5 12 11 12 44 -1 29 -13 45 -14
68 -6 16 6 59 12 95 13 52 2 77 -3 123 -24 32 -15 62 -27 67 -27 12 0 0 63
-14 72 -6 4 -27 10 -46 13 -19 4 -47 13 -62 21 -14 8 -35 14 -45 14 -11 0 -22
3 -26 6 -13 14 -97 11 -108 -3 -9 -10 -14 -11 -20 -2 -4 8 -9 5 -13 -9 -4 -13
-19 -22 -42 -27 -37 -6 -49 -2 -49 18 0 7 -13 12 -28 12 -17 0 -35 8 -43 20
-8 11 -20 20 -27 20 -8 0 -12 23 -13 70 -2 102 -3 115 -11 114 -22 -4 -42 3
-62 20 -13 11 -28 22 -34 24 -7 2 -2 13 13 26 23 20 24 22 8 35 -10 7 -18 23
-18 35 0 12 -4 19 -10 16 -5 -3 -10 -17 -10 -31 0 -26 -27 -33 -48 -12 -10 10
-11 6 -7 -17 6 -33 1 -44 -33 -67 -22 -15 -22 -16 -2 -21 14 -4 23 2 32 21 19
38 43 42 34 6 -12 -45 -25 -56 -60 -48 -27 6 -29 5 -17 -10 18 -21 -2 -22 -43
-1 -29 16 -60 21 -40 7 14 -9 26 -42 15 -42 -5 0 -12 7 -15 16 -5 12 -10 13
-19 5 -10 -8 -17 -7 -25 1 -16 16 -15 31 2 25 8 -3 16 -3 19 0 7 6 -24 43 -36
43 -15 0 -57 37 -49 44 3 4 -1 4 -11 0 -11 -4 -19 0 -23 10 -5 13 -14 15 -34
11 -20 -4 -29 -2 -33 9 -4 10 -19 16 -40 16 -19 0 -37 3 -41 8 -4 4 -11 7 -14
7 -4 1 -31 7 -61 14 -52 13 -149 11 -230 -5 -25 -5 -32 -4 -27 4 4 7 2 12 -4
12 -19 0 -50 -20 -50 -32 0 -7 5 -6 15 2 9 7 18 10 21 7 3 -3 -8 -13 -26 -22
-33 -17 -36 -38 -6 -43 29 -6 61 6 90 33 15 14 32 25 39 25 7 0 4 -5 -5 -11
-32 -18 -21 -35 21 -31 21 2 48 -1 60 -7 12 -7 44 -14 72 -17 28 -3 72 -15 98
-26 25 -11 66 -27 90 -35 25 -8 74 -33 110 -56 36 -22 86 -51 111 -64 25 -12
66 -44 93 -69 44 -44 47 -50 47 -99 0 -57 15 -81 64 -107 l29 -15 -26 -18
c-34 -22 -53 -82 -40 -122 16 -44 11 -79 -10 -75 -16 3 -69 -48 -91 -87 -9
-14 -8 -15 9 -1 17 14 18 14 6 -9 -20 -36 -69 -81 -90 -81 -11 0 -34 -14 -52
-31 -43 -40 -105 -80 -113 -72 -3 3 -25 -10 -48 -29 -52 -42 -103 -70 -112
-60 -4 3 -11 0 -15 -7 -5 -8 -31 -16 -58 -18 l-49 -5 -3 43 c-5 72 -5 102 4
153 6 36 5 47 -4 42 -17 -11 -14 1 17 57 31 58 39 70 69 103 38 42 53 68 53
95 0 28 32 49 74 49 38 0 80 63 50 74 -31 12 -46 5 -91 -44 -25 -27 -51 -50
-57 -50 -14 0 -92 -95 -121 -146 -27 -49 -45 -102 -60 -179 -11 -58 -14 -59
-30 -10 -7 22 -45 1 -45 -25 0 -18 -5 -17 -65 11 -35 17 -89 34 -120 38 -34 5
-60 14 -68 25 -11 15 -64 30 -92 26 -5 -1 -30 -3 -55 -5 -100 -10 -138 -19
-196 -47 -64 -31 -109 -34 -109 -8 0 10 15 17 49 22 76 11 146 45 202 100 l51
49 94 9 c52 5 97 10 101 10 14 0 48 44 48 62 0 20 -28 20 -54 -1 -12 -10 -20
-10 -43 3 -32 17 -60 30 -126 59 -51 22 -50 19 -24 95 6 17 15 32 19 32 4 0 8
11 8 24 0 41 47 83 137 127 l86 40 28 -20 c16 -12 37 -21 48 -21 14 0 19 -5
15 -15 -4 -9 1 -18 12 -22 11 -3 22 -11 26 -17 5 -7 18 -1 35 17 26 26 27 29
10 41 -10 8 -49 24 -87 36 -107 34 -142 27 -331 -68 -8 -4 -46 84 -60 138 -6
25 -12 79 -11 119 0 64 3 77 21 92 28 23 27 27 -6 21 -22 -4 -25 -2 -20 12 4
10 7 25 7 34 0 12 3 13 12 4 18 -18 28 -15 28 8 0 14 -7 20 -21 20 -20 0 -21
4 -16 70 3 45 11 75 21 85 10 10 16 33 16 58 0 24 7 53 16 65 13 19 13 22 1
22 -8 0 -17 7 -21 15 -3 8 -12 15 -21 15 -22 0 -18 17 5 23 11 3 20 11 20 17
0 7 -6 10 -14 7 -11 -5 -13 0 -6 24 5 16 15 43 24 59 9 18 10 30 4 30 -7 0 -7
4 0 13 7 8 6 19 -3 37 -18 32 -18 40 -1 40 27 0 27 19 1 42 -14 12 -25 27 -25
33 0 6 -10 21 -23 33 l-23 22 0 -60 c0 -33 4 -60 8 -60 4 0 8 -6 8 -14 0 -7 7
-19 16 -26 22 -19 14 -64 -13 -68 -19 -3 -21 -8 -16 -35 6 -28 4 -30 -9 -19
-18 14 -68 12 -68 -4 0 -20 13 -24 27 -6 12 16 13 16 7 0 -3 -10 -1 -18 5 -18
6 0 11 -5 11 -11 0 -5 -4 -7 -10 -4 -5 3 -10 1 -10 -4 0 -6 -7 -11 -16 -11
-14 0 -14 -1 0 -16 9 -8 21 -12 28 -8 11 6 11 5 0 -8 -16 -20 -5 -79 14 -71 8
3 20 -9 31 -31 16 -34 16 -38 0 -72 -14 -28 -15 -39 -6 -50 7 -9 9 -29 5 -57
-4 -23 -10 -62 -13 -87 -6 -54 -12 -61 -40 -54 -17 5 -24 16 -29 50 -3 24 -6
47 -6 51 0 5 -8 22 -18 38 -17 27 -38 141 -32 173 2 6 -2 12 -8 12 -7 0 -9 9
-6 23 3 12 3 16 0 10 -10 -23 -26 -14 -22 11 4 19 1 23 -11 18 -9 -3 -13 -2
-9 2 4 4 -8 21 -26 36 -18 16 -41 47 -51 69 -10 22 -26 43 -36 46 -11 4 -19
10 -19 14 0 9 -39 9 -42 1 -4 -15 15 -49 24 -44 7 5 9 -2 5 -18 -6 -21 -3 -25
11 -24 12 1 17 -7 18 -29 1 -16 2 -32 4 -35 1 -3 4 -18 6 -33 1 -15 10 -42 19
-59 15 -32 12 -73 -6 -63 -5 4 -9 1 -9 -4 0 -6 5 -11 11 -11 5 0 7 -4 4 -10
-3 -5 -2 -10 2 -10 12 0 33 -59 27 -75 -3 -8 -2 -20 2 -27 10 -15 12 -25 19
-96 3 -29 17 -90 32 -135 32 -102 36 -130 17 -123 -8 3 -14 -1 -14 -11 0 -11
-3 -13 -12 -5 -16 12 -115 42 -131 39 -7 -1 -15 -6 -19 -12 -4 -6 -12 -3 -20
7 -17 23 -126 36 -133 16 -3 -7 -20 -13 -38 -14 -18 0 -48 -8 -66 -17 -19 -9
-42 -17 -52 -17 -10 0 -25 -7 -34 -16 -12 -12 -19 -14 -27 -6 -8 8 -24 4 -58
-14 -26 -13 -57 -27 -69 -29 -23 -4 -89 -57 -104 -82 -4 -7 -17 -13 -27 -13
-12 0 -20 -7 -20 -16 0 -9 -6 -14 -13 -11 -8 3 -27 -5 -43 -19 -16 -13 -34
-23 -41 -24 -6 0 -23 -14 -36 -30 -14 -17 -30 -30 -36 -30 -6 0 -10 -5 -8 -12
3 -14 -99 -67 -134 -70 -15 -1 -25 -7 -22 -13 3 -9 -13 -8 -58 1 -33 7 -82 14
-108 16 -25 2 -52 9 -59 15 -7 7 -32 18 -55 24 -23 7 -51 20 -62 30 -12 11
-29 16 -41 13 -12 -3 -28 1 -37 10 -9 9 -37 27 -64 41 -68 35 -83 49 -85 78
-2 18 -10 28 -25 32 -13 3 -23 11 -24 18 -3 49 -36 91 -82 102 -15 4 -30 11
-33 16 -9 15 15 49 31 43 9 -4 15 0 15 9 0 9 -9 18 -19 22 -11 3 -34 22 -50
41 -27 30 -31 32 -31 14 0 -12 -4 -18 -10 -15 -16 10 -12 45 5 45 8 0 15 4 15
9 0 5 -15 9 -34 8 -26 -2 -32 -5 -24 -14 7 -8 7 -13 1 -13 -6 0 -22 18 -37 40
-15 23 -31 38 -36 35 -6 -4 -10 -2 -10 4 0 5 -3 17 -7 27 -4 12 -3 15 5 10 7
-4 12 -1 12 8 0 25 29 19 55 -11 13 -16 25 -22 25 -15 0 6 -4 12 -8 12 -8 0
-32 43 -32 56 0 3 9 0 20 -6 25 -13 25 -15 -5 44 -14 27 -25 55 -25 63 0 7 -5
13 -12 13 -6 0 -8 3 -5 7 8 7 -23 32 -40 33 -7 0 -13 -4 -13 -10 0 -5 7 -10
15 -10 8 0 15 -4 15 -10 0 -5 -5 -10 -10 -10 -6 0 -14 -10 -19 -22 -5 -14 -8
6 -8 60 0 45 -3 85 -7 89 -3 3 -16 1 -29 -5 -12 -6 -33 -12 -47 -14 -18 -2
-25 -9 -25 -25 -1 -18 -14 -48 -15 -32 0 2 -8 51 -17 109 -8 58 -17 134 -18
170 -1 36 -10 82 -19 103 -24 55 -33 131 -15 125 8 -3 17 -20 21 -39 5 -25 6
-18 4 24 -1 31 1 57 6 57 4 0 8 -9 8 -20 0 -11 5 -20 10 -20 15 0 12 43 -5 68
-16 21 -21 44 -30 130 -4 33 -1 42 10 42 11 0 14 7 9 24 -3 14 1 40 12 61 9
20 17 49 18 65 1 29 37 57 57 45 5 -4 9 -1 9 4 0 6 -12 11 -26 11 -19 0 -25 4
-22 18 2 9 11 16 21 16 9 -1 17 2 17 6 0 5 3 17 6 27 5 15 4 16 -6 3 -10 -13
-11 -11 -7 8 4 16 0 22 -11 23 -14 0 -14 2 -2 6 19 8 40 36 33 46 -2 4 1 14 7
22 6 8 27 45 46 82 27 54 105 187 152 259 129 199 203 303 215 303 5 1 5 -3 2
-9 -10 -16 1 -11 16 7 12 14 12 16 0 9 -9 -6 -12 -4 -9 5 3 8 12 15 21 17 15
3 16 -1 7 -23 -13 -34 -13 -35 5 -29 8 4 12 10 9 16 -8 12 25 48 44 48 15 0
62 44 62 58 0 4 9 15 20 25 11 9 20 23 20 31 0 8 15 20 33 26 24 10 28 14 14
17 -9 3 -15 9 -11 14 3 5 9 7 14 4 14 -8 61 25 54 37 -4 6 -1 9 7 6 8 -3 20 2
27 11 10 14 11 13 5 -4 -7 -21 102 74 140 123 32 40 67 90 67 97 0 3 -13 5
-28 5 -32 0 -53 -16 -45 -36 4 -10 -4 -14 -28 -14 -18 0 -40 -7 -50 -16 -10
-9 -23 -14 -30 -12 -13 4 53 71 67 68 4 -1 10 2 13 7 3 4 23 21 44 36 21 16
34 33 31 39 -4 6 -2 8 4 4 6 -3 13 -2 17 4 8 13 65 13 65 0 0 -5 -3 -10 -7
-11 -5 0 -18 -2 -31 -3 -38 -4 -45 -21 -16 -36 24 -13 28 -13 44 8 10 12 22
22 28 22 5 0 17 10 28 21 10 12 51 47 89 77 39 30 78 65 88 76 16 18 18 18 13
3 -3 -10 -2 -16 3 -13 5 3 14 -1 21 -9 15 -18 40 -20 40 -2 0 15 76 47 113 47
15 0 27 5 27 10 0 6 7 10 15 10 9 0 18 7 21 15 4 8 10 12 15 10 8 -6 23 8 57
52 28 36 64 39 95 7 15 -14 24 -31 20 -38 -8 -12 -10 -23 -16 -73 -5 -38 2
-41 28 -13 17 18 20 19 28 5 5 -10 5 -21 -1 -28 -5 -7 -6 -21 -1 -32 11 -28
11 -87 0 -80 -14 8 -81 -84 -81 -112 0 -15 9 -27 25 -35 14 -6 25 -19 24 -27
-1 -9 1 -24 6 -34 7 -18 4 -47 -10 -80 -5 -13 -4 -18 6 -17 28 4 39 0 39 -17
0 -10 11 -54 25 -98 14 -44 33 -105 42 -135 17 -59 20 -68 52 -144 12 -27 21
-59 21 -73 0 -16 8 -27 25 -33 25 -10 35 -40 13 -40 -6 0 -8 -3 -5 -6 4 -4 13
-1 22 6 13 11 14 10 9 -4 -3 -9 -1 -16 5 -16 6 0 11 -13 11 -30 0 -20 5 -30
15 -30 17 0 20 -16 4 -25 -16 -10 -5 -30 17 -30 12 0 18 -6 17 -18 0 -11 17
-35 38 -55 60 -56 141 -137 167 -167 12 -15 22 -24 22 -21 0 3 19 -14 43 -37
31 -31 65 -50 127 -74 47 -17 94 -33 104 -35 11 -2 24 -17 32 -38 l12 -35 1
34 c1 30 3 33 24 26 12 -4 49 -10 82 -14 33 -5 74 -15 92 -24 39 -21 44 -21
37 -3 -3 8 -33 26 -67 41 -34 14 -91 43 -127 63 -36 20 -77 42 -92 47 -88 33
-360 276 -389 348 -7 17 -16 34 -20 37 -4 3 -9 14 -11 25 -1 11 -11 26 -21 34
-10 7 -16 20 -13 28 3 8 -5 25 -18 38 -13 13 -22 26 -19 29 3 2 -5 18 -16 35
-12 17 -30 45 -42 61 -14 21 -18 38 -13 53 12 37 5 73 -25 130 -16 31 -31 54
-33 52 -2 -2 -2 11 0 29 2 19 -2 39 -10 47 -16 17 -19 35 -21 116 -1 37 -6 63
-13 63 -6 0 -9 12 -6 30 2 16 8 27 13 24 5 -3 8 6 7 19 -1 15 -7 23 -14 20
-21 -8 -28 37 -9 57 20 22 14 50 -10 50 -12 0 -13 4 -6 19 6 10 7 21 4 25 -3
3 0 6 7 6 11 0 11 3 2 12 -17 17 -15 33 2 19 14 -12 15 6 3 124 -3 21 0 47 6
56 7 11 6 31 -2 64 -9 35 -9 50 0 61 6 8 9 21 5 29 -6 16 21 169 35 197 5 11
3 18 -6 22 -8 3 -15 10 -15 17 0 6 6 9 14 6 15 -6 17 24 3 34 -5 4 -1 21 8 39
9 17 14 39 11 47 -7 18 30 146 57 193 11 19 23 49 26 65 4 21 16 35 38 45 18
8 33 23 33 32 0 27 11 48 26 48 19 0 45 41 35 54 -6 7 -4 21 4 36 8 14 14 40
15 57 0 18 8 54 18 80 14 37 17 67 14 128 -8 142 -7 179 11 254 12 56 14 77 5
82 -8 5 -7 15 6 34 12 18 16 37 12 59 -3 18 0 42 8 58 11 20 11 28 3 32 -7 2
-4 5 6 5 9 1 17 8 17 16 0 13 -3 13 -20 3 -12 -8 -18 -19 -14 -30 4 -13 1 -16
-10 -12 -23 9 -20 45 4 51 18 5 25 21 21 46 -1 5 3 6 9 2 5 -3 10 -1 10 4 0
20 -4 26 -17 23 -16 -3 -16 8 -3 42 5 14 15 26 21 26 20 0 48 31 42 46 -4 12
-8 11 -19 -3 -13 -17 -13 -17 -14 0 0 10 7 20 16 24 8 3 13 12 10 20 -4 8 -3
20 1 26 12 19 32 101 26 110 -3 5 -12 6 -22 3 -13 -5 -12 -3 2 8 11 8 24 13
31 10 10 -4 37 42 41 71 4 27 20 63 41 91 37 48 28 52 -17 9 -37 -36 -40 -37
-34 -15 9 28 56 90 69 90 4 0 18 10 30 21 30 29 173 42 202 18 8 -6 37 -11 64
-10 33 0 73 -9 122 -28 40 -16 85 -33 101 -36 15 -4 27 -11 27 -15 0 -4 18
-10 39 -13 22 -3 54 -12 72 -21 18 -9 38 -16 46 -16 8 0 13 -12 13 -30 0 -27
3 -30 33 -30 39 0 77 -24 77 -50 0 -10 5 -22 10 -25 6 -4 17 -22 25 -41 11
-27 19 -34 37 -32 13 2 28 7 35 11 7 4 14 -1 18 -13 3 -11 14 -20 24 -20 24 0
65 -36 56 -49 -3 -6 -1 -11 4 -11 6 0 11 -5 11 -11 0 -22 42 -69 78 -86 20
-10 54 -17 74 -17 21 1 38 -3 38 -8 0 -11 21 -8 285 43 101 19 131 32 119 50
-3 6 18 19 32 19 2 0 4 -12 4 -26 0 -19 4 -25 18 -22 11 2 16 11 14 25 -2 12
2 24 8 28 8 5 5 12 -7 22 -10 8 -12 11 -4 7 9 -4 12 -2 9 6 -7 23 -23 21 -33
-2 -9 -20 -18 -23 -65 -23 -36 0 -64 -7 -81 -18 -18 -12 -36 -16 -52 -12 -14
4 -28 2 -31 -3 -8 -13 19 -23 42 -17 9 3 4 -1 -13 -9 -40 -20 -69 -20 -62 -1
5 10 -4 16 -31 20 -20 3 -49 8 -63 10 -14 2 -31 -1 -37 -7 -31 -31 -142 34
-257 150 -29 28 -59 52 -67 52 -8 0 -25 11 -38 25 -13 14 -28 25 -33 25 -5 0
-31 18 -56 41 -99 87 -111 97 -111 88 0 -13 -33 2 -48 23 -7 10 -19 18 -27 18
-7 0 -44 14 -81 30 -37 17 -79 32 -93 34 -14 2 -48 12 -76 24 -27 11 -77 23
-110 26 -46 4 -84 17 -160 56 -103 52 -113 55 -131 42z m-84 -367 c-7 -8 -9
-22 -6 -31 7 -18 -11 -47 -25 -39 -9 6 9 63 25 81 16 17 21 7 6 -11z m-70
-249 c0 -3 -4 -8 -10 -11 -5 -3 -10 -1 -10 4 0 6 5 11 10 11 6 0 10 -2 10 -4z
m-67 -345 c3 -11 -2 -28 -10 -38 -14 -17 -14 -17 -9 1 4 10 1 25 -5 32 -11 14
-3 38 10 29 5 -2 11 -14 14 -24z m-32 -88 c-8 -15 -10 -15 -11 -2 0 17 10 32
18 25 2 -3 -1 -13 -7 -23z m-81 -183 c0 -5 -4 -10 -10 -10 -5 0 -10 5 -10 10
0 6 5 10 10 10 6 0 10 -4 10 -10z m28 -378 c2 -12 8 -22 14 -22 16 0 -10 -27
-32 -33 -14 -4 -21 3 -29 24 -6 17 -6 27 -2 24 5 -2 11 5 14 16 7 26 31 20 35
-9z m-70 -72 c10 -17 10 -20 -4 -20 -11 0 -14 -5 -10 -16 4 -10 1 -14 -6 -12
-15 5 -22 33 -14 54 7 20 19 18 34 -6z m-191 -612 c-3 -8 -6 -5 -6 6 -1 11 2
17 5 13 3 -3 4 -12 1 -19z m-92 -188 c-3 -5 -11 -10 -16 -10 -6 0 -7 5 -4 10
3 6 11 10 16 10 6 0 7 -4 4 -10z m-688 -492 c-3 -8 -6 -5 -6 6 -1 11 2 17 5
13 3 -3 4 -12 1 -19z m-323 -199 c-80 -89 -165 -171 -171 -166 -6 7 165 183
181 185 5 1 1 -7 -10 -19z m1004 -4 c-3 -3 -9 2 -12 12 -6 14 -5 15 5 6 7 -7
10 -15 7 -18z m36 -130 c3 -8 1 -15 -4 -15 -6 0 -10 7 -10 15 0 8 2 15 4 15 2
0 6 -7 10 -15z m-1174 -74 c-10 -20 -30 -37 -30 -26 0 11 25 45 33 45 4 0 3
-9 -3 -19z m-170 -105 c0 -2 -8 -10 -17 -17 -16 -13 -17 -12 -4 4 13 16 21 21
21 13z m1480 -244 c0 -15 -2 -15 -10 -2 -13 20 -13 33 0 25 6 -3 10 -14 10
-23z m-1928 -494 c-7 -7 -12 -8 -12 -2 0 14 12 26 19 19 2 -3 -1 -11 -7 -17z
m-102 -523 c0 -8 -4 -15 -10 -15 -5 0 -7 7 -4 15 4 8 8 15 10 15 2 0 4 -7 4
-15z m2495 -305 c3 -5 1 -10 -4 -10 -6 0 -11 5 -11 10 0 6 2 10 4 10 3 0 8 -4
11 -10z m-2348 -360 c3 -8 7 -27 9 -42 3 -21 0 -26 -11 -22 -9 4 -15 0 -15 -7
0 -9 -4 -7 -11 4 -6 11 -8 34 -4 55 8 45 17 61 23 42 2 -8 6 -22 9 -30z m83 1
c0 -11 4 -22 8 -25 15 -9 12 -66 -3 -66 -17 0 -38 63 -30 90 8 26 25 26 25 1z
m-107 -136 c-7 -21 -13 -19 -13 6 0 11 4 18 10 14 5 -3 7 -12 3 -20z m37 -5
c0 -5 -2 -10 -4 -10 -3 0 -8 5 -11 10 -3 6 -1 10 4 10 6 0 11 -4 11 -10z
m-284 -157 c-10 -10 -19 5 -10 18 6 11 8 11 12 0 2 -7 1 -15 -2 -18z m3850 -3
c12 0 27 -7 34 -15 9 -11 16 -12 25 -5 6 5 15 7 18 3 11 -10 8 -53 -3 -53 -5
0 -10 5 -10 11 0 6 -8 8 -19 4 -12 -3 -23 0 -28 8 -4 8 -20 22 -35 32 -16 9
-28 22 -28 28 0 7 4 7 12 -1 7 -7 22 -12 34 -12z m-3356 -25 c20 -24 6 -28
-15 -5 -10 11 -13 20 -8 20 6 0 16 -7 23 -15z m1945 -86 c11 -17 -1 -21 -15
-4 -8 9 -8 15 -2 15 6 0 14 -5 17 -11z m1570 -69 c10 -16 -16 -43 -28 -31 -11
11 -2 41 12 41 5 0 13 -5 16 -10z m-4232 -25 c-10 -13 -25 -25 -33 -25 -9 0
-26 -7 -39 -16 -21 -15 -22 -15 -11 3 12 18 76 62 93 63 4 0 0 -11 -10 -25z
m67 17 c0 -4 -10 -13 -22 -21 -23 -14 -23 -14 -4 8 20 22 26 25 26 13z m2114
-7 c3 -8 15 -15 26 -15 11 0 20 -4 20 -8 0 -14 45 -9 56 7 6 8 18 12 26 8 9
-3 20 -1 26 5 7 7 17 6 31 -1 15 -9 26 -9 42 -1 26 14 36 6 19 -15 -7 -8 -9
-15 -4 -15 5 0 3 -4 -5 -9 -9 -6 -10 -11 -2 -15 6 -4 11 -2 11 3 0 6 7 11 15
11 18 0 20 -20 3 -21 -7 0 -3 -5 10 -11 36 -18 20 -33 -39 -36 -29 -2 -61 -9
-69 -16 -23 -20 -80 -48 -80 -38 0 4 7 17 15 29 13 19 13 22 -1 27 -9 3 -30 6
-47 6 -27 -1 -29 -2 -14 -11 9 -6 14 -15 11 -21 -4 -6 1 -17 11 -24 23 -17 18
-23 -25 -26 -25 -2 -43 -12 -63 -35 -16 -18 -33 -33 -37 -33 -12 0 -19 37 -8
48 6 6 6 17 -1 31 -6 11 -13 33 -15 48 -2 15 -7 37 -12 47 -5 13 -4 17 4 12 7
-4 12 5 14 26 4 45 68 78 82 43z m-2193 -85 c-62 -49 -103 -70 -138 -70 -25 0
-22 3 22 24 28 14 70 40 94 59 25 19 51 33 58 30 7 -3 -6 -20 -36 -43z m143
23 c-9 -7 -21 -10 -25 -7 -5 3 -9 1 -9 -4 0 -6 -8 -13 -17 -16 -14 -6 -13 -2
4 16 13 13 32 24 43 24 20 0 20 -1 4 -13z m2373 -23 c-1 -23 -13 -17 -20 9 -3
13 -1 18 8 14 8 -2 13 -13 12 -23z m160 -14 c35 5 43 3 57 -17 9 -13 16 -31
16 -40 0 -9 6 -22 14 -28 8 -7 12 -20 9 -30 -6 -22 -84 -81 -106 -81 -9 0 -23
-7 -32 -16 -25 -25 -112 -21 -142 8 -14 13 -22 30 -20 40 3 10 1 18 -4 18 -5
0 -9 -6 -9 -12 -1 -9 -5 -7 -13 3 -7 9 -21 18 -31 20 -11 2 -21 10 -24 18 -3
8 0 11 7 7 6 -4 14 0 17 8 8 20 24 21 24 1 0 -8 5 -15 10 -15 6 0 10 9 10 19
0 22 30 35 74 32 32 -2 66 23 66 50 0 19 22 31 31 17 3 -5 24 -6 46 -2z m-650
-40 c4 -8 13 -16 18 -18 6 -2 9 -11 8 -21 -2 -10 1 -16 6 -13 5 4 5 -6 -1 -22
-7 -18 -25 -33 -49 -44 -28 -12 -37 -21 -33 -32 7 -19 -16 -22 -34 -4 -9 9
-12 8 -12 -5 0 -9 -5 -17 -11 -17 -7 0 -9 11 -5 28 3 15 3 21 0 15 -10 -24
-21 -13 -16 16 3 22 -1 29 -17 34 -13 3 -21 13 -21 25 0 16 12 24 50 37 27 9
52 21 55 26 9 14 53 11 62 -5z m-2637 -8 c0 -12 -41 -47 -56 -48 -6 0 -19 -9
-29 -20 -23 -26 -45 -26 -45 0 0 13 16 30 43 48 45 29 87 38 87 20z m-250 -18
c0 -5 -4 -10 -10 -10 -5 0 -10 5 -10 10 0 6 5 10 10 10 6 0 10 -4 10 -10z m65
-9 c-3 -6 -14 -11 -23 -11 -15 1 -15 2 2 15 21 16 32 13 21 -4z m292 -46 c-2
-5 -14 -11 -28 -12 -13 -1 -18 0 -11 3 6 3 12 18 12 32 1 26 1 26 15 7 9 -10
14 -24 12 -30z m307 14 c-8 -13 -74 -42 -81 -36 -4 5 66 45 80 46 5 1 5 -4 1
-10z m-554 -9 c0 -5 -7 -10 -16 -10 -8 0 -12 5 -9 10 3 6 10 10 16 10 5 0 9
-4 9 -10z m175 -18 c-9 -2 -13 -7 -10 -12 3 -4 -4 -6 -15 -3 -19 5 -19 6 3 23
16 13 24 15 29 7 4 -7 1 -13 -7 -15z m2948 1 c-7 -2 -19 -2 -25 0 -7 3 -2 5
12 5 14 0 19 -2 13 -5z m-3374 -54 c-19 -12 -39 -11 -39 1 0 6 7 10 15 10 8 0
15 8 15 18 1 15 2 15 11 -2 9 -14 8 -20 -2 -27z m2236 -19 c3 -5 2 -10 -4 -10
-5 0 -13 5 -16 10 -3 6 -2 10 4 10 5 0 13 -4 16 -10z m562 -43 c2 -21 -1 -46
-7 -56 -7 -14 -6 -23 4 -33 18 -19 26 -78 10 -78 -9 0 -10 -7 -1 -29 8 -21 7
-40 -3 -74 -17 -62 -31 -73 -67 -53 -60 33 -83 64 -83 113 0 16 -4 33 -9 38
-5 6 -11 33 -13 60 -2 29 -9 55 -18 62 -11 9 -12 14 -3 24 6 6 9 18 6 25 -3 9
3 14 18 14 13 1 47 9 74 19 65 23 87 15 92 -32z m-477 32 c12 -8 10 -9 -7 -4
-13 4 -23 2 -23 -4 0 -5 12 -12 28 -14 26 -4 25 -4 -5 -6 -35 -1 -54 16 -32
30 18 11 21 11 39 -2z m315 1 c-3 -5 -14 -10 -23 -9 -14 0 -13 2 3 9 27 11 27
11 20 0z m-160 -10 c-27 -12 -35 -12 -35 0 0 6 12 10 28 9 24 0 25 -1 7 -9z
m557 -21 c-2 -13 -9 -30 -14 -36 -7 -9 -7 -13 2 -13 7 0 10 -8 7 -20 -3 -11
-1 -20 5 -20 5 0 7 -4 3 -9 -3 -5 -1 -12 5 -16 5 -3 10 -1 10 4 0 6 7 11 15
11 8 0 15 5 15 10 0 6 7 10 15 10 8 0 15 5 15 12 0 6 3 9 6 6 3 -4 19 -2 36 3
20 5 38 4 52 -3 43 -24 78 -14 70 20 -3 10 4 22 16 30 29 18 120 -9 154 -44
23 -25 23 -28 10 -78 -8 -28 -14 -61 -14 -72 0 -50 -183 -254 -226 -254 -7 0
-14 -5 -16 -12 -3 -7 -21 1 -48 20 -23 18 -51 32 -60 32 -10 0 -39 9 -66 19
-27 11 -58 23 -69 27 -11 4 -27 8 -35 9 -8 0 -14 6 -12 13 1 7 -2 12 -7 12 -5
0 -9 14 -9 30 1 18 6 30 15 30 9 0 13 14 13 46 0 25 4 53 9 63 5 9 12 35 14
57 8 71 54 150 81 141 6 -2 9 -15 8 -28z m793 -17 c-15 -3 -19 -18 -15 -59 1
-24 -42 -53 -81 -53 -12 0 -30 -7 -39 -15 -18 -16 -80 -11 -80 7 0 42 90 119
118 102 12 -7 24 -7 40 2 21 10 22 12 5 19 -14 7 -11 10 17 14 33 6 66 -10 35
-17z m-1475 -1 c0 -5 -7 -11 -14 -14 -10 -4 -13 -1 -9 9 6 15 23 19 23 5z
m2035 -370 c3 -5 1 -12 -5 -16 -5 -3 -10 1 -10 9 0 18 6 21 15 7z"/>
<path d="M4488 3533 c7 -3 16 -2 19 1 4 3 -2 6 -13 5 -11 0 -14 -3 -6 -6z"/>
<path d="M4310 3479 c0 -5 5 -7 10 -4 6 3 10 8 10 11 0 2 -4 4 -10 4 -5 0 -10
-5 -10 -11z"/>
<path d="M4156 3396 c3 -9 11 -16 16 -16 13 0 5 23 -10 28 -7 2 -10 -2 -6 -12z"/>
<path d="M4960 3224 c0 -8 5 -12 10 -9 6 4 8 11 5 16 -9 14 -15 11 -15 -7z"/>
<path d="M9046 9379 c-32 -5 -64 -13 -70 -18 -20 -16 -109 -61 -121 -61 -7 0
-24 -9 -38 -20 -27 -21 -114 -49 -177 -56 -19 -3 -64 -13 -100 -24 -36 -11
-77 -22 -92 -26 -16 -3 -28 -10 -28 -14 0 -4 -17 -11 -37 -15 -21 -4 -42 -10
-48 -15 -5 -4 -37 -13 -70 -19 -69 -13 -154 -53 -245 -117 -125 -87 -187 -117
-225 -110 -27 5 -37 3 -41 -9 -8 -19 -55 -20 -92 -1 -15 7 -49 16 -77 19 -27
3 -85 18 -128 32 -59 20 -82 23 -92 15 -9 -8 -53 -9 -142 -5 -70 4 -167 7
-216 7 -66 1 -85 4 -77 13 6 8 6 15 -2 23 -15 15 -42 16 -33 1 4 -6 -1 -17
-11 -24 -25 -19 -32 -18 -37 3 -4 15 -5 15 -6 0 0 -9 -8 -18 -16 -20 -9 -2
-11 -8 -6 -16 14 -23 186 -31 224 -11 15 8 22 8 28 -2 6 -10 9 -11 9 -1 0 6
10 12 23 12 18 0 19 -2 7 -10 -12 -8 -10 -10 11 -10 14 0 30 5 37 12 7 7 12 8
12 2 0 -5 -5 -15 -12 -22 -7 -7 -10 -12 -7 -12 35 -1 124 -23 142 -35 21 -16
19 -16 -33 -9 -71 11 -169 11 -297 0 -72 -6 -118 -4 -153 4 -40 10 -55 9 -80
-1 -33 -15 -34 -17 -21 -38 7 -11 13 -12 23 -4 8 7 39 10 73 8 141 -8 372 -6
396 3 30 12 174 6 239 -10 49 -12 197 -74 218 -91 18 -14 75 -20 67 -7 -3 5 5
15 19 22 14 6 26 15 26 19 0 9 96 69 110 69 6 0 43 15 83 34 87 42 216 86 250
86 13 0 32 9 43 21 10 11 27 25 38 31 16 9 18 7 14 -10 -7 -24 17 -20 26 4 3
8 12 14 20 14 8 0 16 5 18 10 2 6 24 11 50 12 37 2 45 5 36 15 -8 10 -5 13 11
13 12 0 24 7 27 15 4 8 16 15 28 15 12 0 31 7 42 15 10 8 29 15 42 15 12 0 22
5 22 10 0 6 9 10 19 10 11 0 38 16 61 35 42 35 50 39 83 35 10 -1 24 4 32 10
8 7 19 9 25 5 6 -4 17 -2 25 5 15 12 28 0 17 -16 -18 -28 -209 -137 -223 -128
-4 2 -6 -7 -4 -21 1 -14 2 -25 1 -25 -1 0 -40 -13 -86 -30 -47 -16 -97 -30
-112 -30 -16 0 -28 -4 -28 -10 0 -15 -42 -50 -90 -75 -43 -22 -265 -176 -302
-209 -10 -9 -18 -20 -18 -25 0 -20 33 -41 66 -41 28 0 35 4 41 28 4 15 6 32 5
38 -3 13 55 37 68 29 4 -3 10 5 14 18 4 16 27 32 82 57 42 19 106 54 141 78
35 23 68 40 74 37 5 -4 14 5 21 19 13 30 29 32 62 11 22 -15 22 -14 18 13 -3
24 1 31 25 39 15 6 37 15 48 19 11 4 27 6 35 5 12 -1 12 0 2 7 -7 5 -10 16 -6
25 7 20 107 82 146 91 15 3 29 14 33 24 10 30 56 56 102 56 27 1 43 6 43 13 0
7 -10 12 -22 10 -28 -3 -37 29 -11 36 17 4 17 5 0 6 -10 0 -31 -6 -47 -14
l-28 -15 15 30 c13 26 33 36 65 31 4 0 22 5 40 13 18 7 50 11 71 9 35 -5 37
-7 37 -43 0 -21 5 -40 11 -42 14 -5 0 -38 -17 -38 -8 0 -14 -4 -14 -10 0 -5 5
-10 10 -10 11 0 13 -30 4 -54 -9 -22 -34 -20 -61 6 -17 16 -23 18 -23 6 0 -19
42 -58 63 -58 26 0 38 -36 44 -134 5 -81 4 -94 -11 -99 -21 -8 -33 18 -17 36
14 17 -5 37 -34 37 -15 0 -24 -9 -30 -32 -7 -24 -21 -39 -51 -54 -54 -27 -187
-157 -189 -184 -2 -19 1 -19 29 8 48 44 244 167 253 159 5 -6 -44 -41 -69 -50
-31 -11 -162 -104 -192 -136 -17 -17 -35 -31 -41 -31 -6 0 -18 -12 -27 -27 -9
-16 -44 -57 -78 -93 -33 -36 -63 -73 -66 -82 -3 -10 -12 -18 -21 -18 -10 0
-13 -6 -9 -16 3 -9 6 -27 6 -41 0 -36 22 -24 33 18 5 19 18 43 30 55 12 11 42
45 67 75 94 112 138 153 220 207 47 30 101 67 121 83 47 37 59 36 56 -1 -1
-22 -7 -30 -22 -31 l-20 -1 20 -6 c22 -8 30 -32 21 -68 -4 -15 -11 -21 -21
-18 -21 8 -19 -16 3 -32 16 -13 16 -13 0 -14 -10 0 -18 -8 -18 -17 0 -20 -20
-81 -33 -101 -16 -24 -21 -121 -7 -137 10 -12 9 -20 -5 -42 -10 -14 -18 -45
-18 -67 0 -38 -17 -74 -55 -114 -16 -18 -8 -27 15 -17 10 5 21 7 26 7 4 -1 7
3 7 8 0 6 5 10 11 10 7 0 9 -17 4 -52 -7 -52 -25 -91 -25 -54 0 10 -5 14 -11
10 -8 -4 -9 0 -4 15 5 15 2 21 -10 21 -9 0 -13 5 -10 10 9 14 -7 12 -27 -3
-29 -23 -26 -51 9 -67 17 -8 34 -25 37 -37 5 -17 12 -21 40 -19 19 2 40 -1 48
-5 7 -5 9 -9 3 -9 -5 0 -3 -5 5 -10 12 -8 8 -10 -15 -11 -16 -1 -22 -3 -13 -6
14 -3 17 -16 16 -61 -1 -31 0 -61 2 -67 7 -29 -2 -56 -22 -64 -18 -6 -19 -9
-5 -14 10 -4 17 -16 17 -27 0 -27 23 -26 35 3 6 12 19 22 29 22 16 0 23 -14
37 -75 48 -207 51 -261 14 -230 -8 7 -19 10 -23 6 -4 -4 1 -13 11 -20 18 -14
24 -46 7 -46 -17 0 -11 -28 8 -39 16 -10 16 -10 0 -11 -10 0 -18 -4 -18 -10 0
-5 7 -7 15 -4 9 4 15 0 15 -10 0 -9 5 -16 11 -16 6 0 8 -8 5 -17 -4 -13 5 -25
28 -41 24 -17 32 -29 29 -43 -3 -10 -13 -19 -22 -19 -10 0 -20 -3 -24 -6 -10
-10 17 -44 35 -44 10 0 18 -7 18 -16 0 -11 -6 -14 -21 -9 -17 6 -20 4 -16 -12
10 -33 19 -83 21 -118 3 -34 3 -35 -36 -35 -22 0 -37 -4 -34 -9 3 -5 24 -9 47
-9 62 -1 71 -36 15 -55 -8 -3 -7 -8 1 -19 15 -17 7 -28 -19 -28 -28 0 -22 -24
16 -61 45 -44 51 -81 19 -116 -10 -10 -14 -13 -10 -6 23 33 -29 45 -58 13 -18
-20 -18 -21 3 -40 24 -22 42 -26 42 -8 0 6 2 9 5 6 3 -2 -1 -24 -9 -49 -7 -24
-18 -71 -24 -104 -6 -33 -14 -72 -17 -88 -7 -27 -7 -27 20 -17 15 6 31 8 34 4
8 -8 -29 -34 -50 -34 -22 0 -80 -102 -85 -152 -6 -50 -27 -99 -53 -122 -11
-10 -18 -22 -16 -27 11 -17 -17 -20 -30 -3 -7 11 -15 17 -17 14 -3 -3 -44 -57
-93 -120 -49 -63 -95 -121 -102 -128 -7 -7 -13 -18 -13 -24 0 -13 -173 -184
-218 -217 -18 -12 -32 -28 -32 -35 0 -7 -15 -20 -32 -29 -69 -36 -103 -58
-116 -74 -7 -11 -27 -18 -50 -19 -20 0 -50 -4 -67 -8 -45 -10 -145 -59 -139
-68 3 -4 -2 -5 -10 -2 -8 3 -22 -3 -32 -15 -10 -11 -21 -18 -26 -15 -4 3 -8 1
-8 -5 0 -15 -41 -51 -58 -51 -7 0 -28 -11 -46 -25 -18 -14 -36 -22 -39 -19 -4
4 -13 1 -21 -5 -10 -8 -16 -9 -21 -1 -4 7 -16 3 -35 -10 -15 -11 -33 -20 -39
-20 -22 0 -101 -60 -101 -77 0 -3 19 -1 43 3 23 4 48 7 55 7 6 0 12 3 12 7 0
4 11 12 25 18 22 10 29 9 48 -9 19 -17 23 -18 25 -5 2 9 10 16 18 16 8 0 13
-5 11 -12 -5 -27 31 -16 73 22 25 22 48 40 51 40 3 0 14 -9 23 -19 10 -11 24
-17 31 -15 7 3 16 0 21 -7 5 -9 -1 -11 -24 -6 -28 6 -32 4 -38 -20 -5 -17 -1
-37 9 -55 9 -16 13 -26 7 -23 -5 3 -11 1 -14 -4 -7 -11 22 -23 35 -15 5 3 9
13 9 23 0 22 38 63 51 56 5 -4 9 -16 9 -28 1 -21 1 -21 11 -3 8 12 8 21 1 25
-5 3 -12 24 -16 46 -5 31 -2 46 13 64 l18 24 12 -35 c6 -19 13 -81 15 -138 3
-93 2 -101 -10 -80 -14 25 -14 24 -11 -11 2 -19 8 -43 14 -54 10 -17 12 -16
25 9 13 26 15 22 37 -96 13 -68 28 -127 34 -133 6 -6 8 3 5 27 -2 20 -1 35 3
32 4 -2 9 6 11 18 4 25 28 37 28 14 0 -9 4 -16 8 -16 4 0 8 -18 9 -41 2 -32
-1 -40 -12 -35 -10 3 -15 -1 -16 -12 -2 -25 -2 -25 6 -49 5 -18 3 -22 -9 -17
-9 3 -16 14 -16 24 0 25 -20 36 -21 13 -1 -10 -1 -24 0 -31 1 -8 -3 -19 -8
-26 -6 -8 -8 -27 -5 -46 6 -27 9 -29 16 -15 6 9 7 27 4 41 -6 24 7 33 19 13 4
-6 13 -8 21 -5 8 3 14 0 15 -7 0 -7 2 -28 5 -47 5 -39 -12 -90 -31 -90 -35 0
-49 -125 -17 -153 10 -10 21 -15 24 -12 12 13 13 -23 2 -65 -10 -36 -13 -40
-13 -17 -1 36 -16 27 -25 -14 -4 -21 -1 -35 9 -46 17 -16 20 -53 5 -53 -5 0
-10 8 -10 18 0 10 -3 22 -7 25 -8 8 -33 -40 -32 -62 0 -13 2 -12 8 3 10 27 25
3 16 -25 -5 -15 -4 -19 4 -15 7 5 11 -2 11 -18 0 -14 -4 -28 -10 -31 -5 -3
-10 -14 -10 -23 0 -14 2 -15 10 -2 7 12 10 11 16 -5 5 -11 3 -20 -4 -23 -7 -2
-12 -10 -12 -19 0 -8 -9 -26 -19 -39 -18 -23 -20 -23 -29 -8 -8 14 -11 9 -17
-25 -4 -23 -9 -40 -13 -37 -3 3 -12 0 -20 -7 -12 -9 -16 -9 -19 1 -3 6 -16 12
-29 12 -14 0 -40 7 -59 14 -19 8 -35 12 -35 9 0 -3 -7 0 -15 7 -16 13 -189 15
-209 3 -5 -3 -30 -8 -55 -10 -25 -2 -55 -7 -66 -12 -11 -5 -37 -15 -57 -21
-21 -6 -40 -16 -43 -21 -9 -14 35 -11 80 6 48 17 79 20 53 4 -10 -5 -18 -14
-18 -19 0 -10 156 -3 226 11 22 4 37 -1 28 -10 -5 -5 -47 -11 -93 -14 -57 -4
-89 -11 -102 -23 -10 -9 -25 -14 -34 -10 -10 3 -14 2 -10 -5 5 -7 59 -8 163
-5 149 5 154 5 107 -9 l-50 -14 44 5 c45 5 139 -10 177 -28 17 -8 23 -22 28
-63 3 -29 9 -60 12 -69 10 -25 25 -19 18 8 -4 16 -1 25 10 29 10 4 16 18 16
37 0 26 4 30 27 30 14 0 35 -8 46 -18 12 -9 17 -11 12 -3 -5 9 -3 12 6 9 8 -3
15 -20 15 -39 1 -19 9 -51 18 -72 50 -115 36 -250 -31 -319 -34 -35 -42 -38
-90 -38 l-54 0 4 95 c3 78 1 95 -11 95 -11 0 -13 -8 -9 -29 3 -15 1 -33 -4
-38 -8 -8 -7 -13 0 -17 18 -11 12 -26 -10 -26 -13 0 -25 -11 -35 -35 -20 -49
-55 -69 -102 -61 -20 4 -56 9 -80 11 -27 2 -55 13 -79 31 l-37 28 20 -34 c11
-19 29 -40 41 -45 44 -22 53 -35 41 -61 -6 -13 -15 -24 -19 -24 -4 0 -11 -9
-14 -20 -9 -27 -49 -35 -96 -20 -28 9 -38 18 -34 28 7 19 -33 87 -59 101 -11
6 -34 12 -51 13 l-30 3 33 20 c17 10 32 23 32 28 0 5 -7 4 -15 -3 -13 -11 -19
-9 -33 11 l-17 24 -5 -35 c-4 -27 -9 -34 -23 -32 -15 3 -18 -2 -15 -24 3 -25
-1 -29 -29 -35 -18 -3 -33 -3 -33 1 0 4 -13 13 -29 20 -16 6 -39 22 -52 36
-12 13 -26 24 -31 24 -5 0 -21 12 -36 28 -46 47 -79 73 -95 76 -8 1 -22 9 -31
19 -10 9 -24 17 -32 17 -8 0 -13 4 -10 9 3 5 -8 23 -24 41 -17 18 -33 44 -36
59 -8 43 -73 171 -86 171 -6 0 -25 15 -42 34 -38 41 -49 107 -31 185 6 25 5
32 -4 27 -6 -4 -9 -11 -7 -15 3 -4 1 -13 -5 -21 -5 -10 -9 -11 -9 -3 0 7 -7
10 -15 6 -9 -3 -21 2 -29 12 -17 24 -50 15 -54 -14 -2 -13 1 -21 6 -17 13 8
22 -27 22 -84 0 -45 11 -75 24 -68 10 4 76 -124 76 -148 0 -5 23 -27 50 -48
38 -29 50 -45 50 -65 0 -14 7 -39 16 -56 26 -48 34 -83 21 -89 -7 -2 -3 -5 8
-6 11 0 29 -7 39 -15 11 -8 26 -15 33 -15 7 0 33 -20 57 -44 43 -42 123 -75
147 -61 5 4 9 1 9 -5 0 -7 8 -9 21 -5 12 4 40 0 65 -10 33 -13 50 -28 70 -61
16 -28 33 -44 45 -44 11 0 28 -6 39 -12 16 -11 22 -9 33 6 13 17 16 17 48 4
19 -8 66 -16 104 -17 59 -2 76 1 105 21 19 13 36 33 38 43 3 16 1 18 -9 7 -17
-16 -53 -16 -42 1 4 6 6 22 4 34 -3 28 38 47 81 37 28 -6 29 -7 12 -25 -18
-20 -20 -18 54 -44 7 -3 10 0 7 5 -3 6 1 10 10 10 9 0 27 8 42 17 14 9 47 17
74 18 55 2 95 19 102 45 3 13 11 16 29 13 28 -5 75 15 99 43 15 19 36 81 40
119 4 53 -1 148 -9 158 -4 7 -9 25 -10 41 -2 28 -42 141 -85 239 -19 43 -20
53 -9 125 7 42 12 97 12 122 l-1 45 -15 -28 c-8 -15 -19 -25 -24 -22 -10 6 0
128 11 135 17 12 79 140 79 164 0 14 7 29 16 34 13 7 13 15 4 54 -7 25 -10 54
-8 64 2 11 -5 26 -15 34 -16 14 -18 21 -9 52 6 21 6 40 1 45 -5 5 -12 29 -15
53 -4 24 -13 54 -21 66 -12 19 -12 24 0 31 33 20 26 152 -11 179 -13 10 -14
16 -5 37 11 24 7 57 -15 117 -3 8 -4 19 -3 24 1 5 -6 42 -15 82 -9 41 -14 81
-11 88 3 8 1 16 -4 18 -9 3 -13 19 -21 82 -3 18 45 55 107 85 11 5 42 26 69
45 52 38 103 49 92 21 -5 -13 -2 -14 17 -3 12 6 36 14 52 18 20 4 29 12 27 22
-1 8 15 28 35 44 68 52 153 147 153 171 0 13 -4 23 -9 23 -18 0 2 48 25 59 13
6 24 17 24 25 0 25 24 60 73 108 26 26 47 56 47 67 0 11 12 29 26 40 14 11 23
25 19 31 -8 13 25 70 41 70 7 0 22 16 34 35 12 19 28 35 35 35 8 0 19 9 24 19
8 15 7 20 -6 26 -14 5 -15 8 -4 15 8 4 11 15 8 24 -4 10 -1 16 9 16 11 0 14
-6 10 -17 -4 -11 2 -8 14 7 65 84 63 80 50 108 -27 59 -37 110 -30 153 10 66
35 107 73 118 17 5 24 10 13 10 -17 1 -18 7 -11 83 4 45 11 95 16 112 10 33
-9 72 -39 83 -32 12 -48 38 -48 80 0 23 4 39 8 37 3 -2 9 4 11 13 3 10 5 2 6
-18 0 -20 7 -41 14 -47 9 -8 12 3 10 52 -1 35 -7 74 -12 88 -5 14 -13 59 -16
99 -6 56 -13 80 -30 99 -14 16 -22 38 -22 62 -1 20 -8 65 -17 100 -9 39 -14
97 -13 152 2 73 -1 93 -17 120 -40 62 -45 71 -56 95 -6 13 -24 36 -41 52 -24
22 -29 32 -21 42 6 7 11 22 10 32 0 11 3 58 7 105 4 47 7 99 6 117 0 18 6 63
14 101 8 38 12 78 9 89 -3 11 4 48 15 83 12 35 21 79 21 99 0 20 4 70 10 111
6 41 17 134 25 205 15 142 31 209 46 200 5 -4 9 -1 9 4 0 6 -4 11 -9 11 -10 0
-23 31 -27 65 -1 11 -3 22 -3 25 -1 3 -12 17 -25 33 -20 24 -25 25 -36 12 -7
-8 -16 -15 -20 -15 -10 0 -24 103 -21 152 2 33 0 38 -26 44 -52 11 -58 11
-117 3z m184 -238 c0 -11 -4 -23 -10 -26 -6 -4 -10 5 -10 19 0 14 5 26 10 26
6 0 10 -9 10 -19z m-876 -76 c-7 -17 -20 -20 -29 -6 -3 5 3 12 12 14 10 3 19
5 20 6 1 0 0 -6 -3 -14z m56 -1 c0 -2 -7 -4 -15 -4 -8 0 -15 4 -15 10 0 5 7 7
15 4 8 -4 15 -8 15 -10z m-310 -105 c0 -5 -4 -9 -10 -9 -5 0 -10 7 -10 16 0 8
5 12 10 9 6 -3 10 -10 10 -16z m1050 -869 c0 -5 -5 -10 -11 -10 -5 0 -7 5 -4
10 3 6 8 10 11 10 2 0 4 -4 4 -10z m-15 -120 c8 -13 -5 -13 -25 0 -13 8 -13
10 2 10 9 0 20 -4 23 -10z m178 -775 c-3 -9 -8 -14 -10 -11 -3 3 -2 9 2 15 9
16 15 13 8 -4z m37 -159 c0 -3 -4 -8 -10 -11 -5 -3 -10 -1 -10 4 0 6 5 11 10
11 6 0 10 -2 10 -4z m-470 -1466 c0 -5 -2 -10 -4 -10 -3 0 -8 5 -11 10 -3 6
-1 10 4 10 6 0 11 -4 11 -10z m-700 -570 c0 -5 -2 -10 -4 -10 -3 0 -8 5 -11
10 -3 6 -1 10 4 10 6 0 11 -4 11 -10z m206 -192 c3 -13 11 -29 18 -37 6 -8 11
-27 12 -43 1 -22 -2 -28 -13 -23 -9 3 -22 0 -29 -6 -14 -11 -16 -7 -29 75 -5
27 -2 41 7 47 20 13 26 11 34 -13z m84 -552 c0 -3 -4 -8 -10 -11 -5 -3 -10 -1
-10 4 0 6 5 11 10 11 6 0 10 -2 10 -4z m-40 -56 c0 -5 -4 -10 -10 -10 -5 0
-10 5 -10 10 0 6 5 10 10 10 6 0 10 -4 10 -10z m16 -76 c-4 -9 -9 -15 -11 -12
-3 3 -3 13 1 22 4 9 9 15 11 12 3 -3 3 -13 -1 -22z m28 -14 c-6 -6 -10 -2 -11
12 -2 16 1 18 10 9 7 -7 8 -14 1 -21z m-27 -292 c-3 -8 -6 -5 -6 6 -1 11 2 17
5 13 3 -3 4 -12 1 -19z m-564 -145 c-7 -2 -19 -2 -25 0 -7 3 -2 5 12 5 14 0
19 -2 13 -5z m-813 -93 c0 -11 -7 -20 -15 -20 -18 0 -19 6 -2 25 16 19 17 18
17 -5z"/>
<path d="M5356 9213 c-4 -5 -13 -8 -19 -8 -7 0 -13 -10 -15 -21 -3 -19 3 -22
47 -28 57 -8 158 -51 142 -61 -15 -9 -14 -25 2 -25 7 0 17 -10 22 -22 6 -14
17 -22 29 -20 10 2 15 -1 12 -6 -3 -5 1 -15 9 -22 8 -7 15 -18 15 -26 0 -7 5
-16 12 -20 7 -5 9 -2 5 9 -4 11 -2 14 8 11 8 -3 13 -9 12 -13 -3 -9 35 -47 56
-54 11 -4 17 -17 17 -37 0 -18 4 -29 10 -25 6 3 10 1 10 -4 0 -6 9 -11 20 -11
14 0 21 -9 25 -34 4 -19 4 -43 1 -53 -3 -10 -1 -25 4 -33 8 -13 10 -13 10 1 0
9 6 22 14 28 11 10 10 25 -12 94 -13 45 -35 96 -48 113 -13 17 -24 34 -24 39
0 8 -48 55 -56 55 -9 0 -41 35 -47 53 -4 9 -2 17 3 17 5 0 7 7 3 16 -4 11 -13
13 -35 9 -21 -5 -35 -2 -48 10 -10 9 -24 14 -29 10 -10 -6 -12 -1 -10 22 0 12
-65 23 -72 12 -3 -5 -14 0 -24 11 -19 21 -36 25 -49 13z m111 -59 c-3 -3 -12
-4 -19 -1 -8 3 -5 6 6 6 11 1 17 -2 13 -5z"/>
<path d="M5213 9087 c-47 -24 -57 -43 -18 -33 25 6 35 -7 14 -20 -8 -4 -7 -9
2 -15 8 -5 22 5 41 29 48 64 34 77 -39 39z"/>
<path d="M9000 9106 c0 -2 9 -6 20 -9 11 -3 18 -1 14 4 -5 9 -34 13 -34 5z"/>
<path d="M5125 9039 c-28 -19 -28 -20 -5 -14 27 8 46 22 39 29 -3 3 -18 -4
-34 -15z"/>
<path d="M8790 9040 c0 -5 7 -10 16 -10 8 0 12 5 9 10 -3 6 -10 10 -16 10 -5
0 -9 -4 -9 -10z"/>
<path d="M5166 9015 c-3 -8 -1 -15 3 -15 5 0 11 7 15 15 3 8 1 15 -3 15 -5 0
-11 -7 -15 -15z"/>
<path d="M9091 8992 c-14 -26 -7 -42 10 -25 6 6 9 19 7 29 -3 17 -5 17 -17 -4z"/>
<path d="M8394 8979 c0 -13 3 -15 13 -7 7 6 13 12 13 13 0 2 -6 5 -13 8 -7 3
-13 -3 -13 -14z"/>
<path d="M8936 8982 c-4 -7 -18 -12 -32 -12 -14 0 -23 -4 -20 -9 3 -4 17 -6
31 -3 32 6 31 -5 -3 -45 -20 -24 -37 -33 -67 -36 -44 -4 -84 -24 -81 -41 2 -6
1 -8 -1 -3 -11 18 -103 -2 -103 -22 0 -10 9 -11 78 -11 52 1 90 14 98 35 4 8
13 15 21 15 8 0 29 10 46 22 17 12 27 17 23 10 -4 -7 -2 -12 3 -12 6 0 11 6
11 13 0 13 36 52 48 52 3 0 7 8 7 18 1 12 -3 16 -13 12 -8 -3 -20 2 -27 11 -8
12 -14 14 -19 6z"/>
<path d="M5300 8955 c7 -8 17 -15 22 -15 6 0 5 7 -2 15 -7 8 -17 15 -22 15 -6
0 -5 -7 2 -15z"/>
<path d="M8860 8940 c0 -5 5 -10 11 -10 5 0 7 5 4 10 -3 6 -8 10 -11 10 -2 0
-4 -4 -4 -10z"/>
<path d="M5626 8895 c-3 -9 0 -15 9 -15 8 0 15 7 15 15 0 8 -4 15 -9 15 -5 0
-11 -7 -15 -15z"/>
<path d="M5130 8892 c1 -16 17 -32 38 -35 12 -2 25 -6 28 -10 4 -4 12 -7 17
-7 6 0 0 9 -12 19 -13 12 -30 17 -39 14 -14 -6 -15 -4 -5 8 10 12 8 15 -8 16
-10 1 -19 -1 -19 -5z"/>
<path d="M5371 8854 c0 -11 3 -14 6 -6 3 7 2 16 -1 19 -3 4 -6 -2 -5 -13z"/>
<path d="M8518 8813 c-50 -29 -89 -63 -83 -73 3 -4 -4 -15 -15 -25 -39 -35
-19 -36 22 -1 23 20 46 36 52 36 5 0 31 10 58 22 33 15 47 26 43 36 -3 7 -5
17 -5 21 0 14 -30 8 -72 -16z"/>
<path d="M4902 8797 c-9 -11 -10 -17 -2 -22 15 -9 23 -1 18 21 -3 15 -4 16
-16 1z"/>
<path d="M5243 8787 c-3 -6 -1 -13 7 -15 7 -3 29 -20 48 -38 39 -37 79 -50 49
-16 -10 10 -17 27 -17 37 0 12 9 5 26 -21 34 -50 34 -50 34 -31 0 8 -6 22 -13
29 -7 7 -16 21 -20 31 -3 9 -15 17 -25 17 -10 0 -22 3 -25 7 -12 11 -56 12
-64 0z"/>
<path d="M8652 8783 c-6 -2 -10 -9 -6 -14 8 -14 21 -11 28 6 6 15 1 17 -22 8z"/>
<path d="M5820 8773 c0 -5 7 -19 16 -32 12 -16 23 -22 41 -18 15 3 27 -1 30
-9 3 -8 9 -14 15 -14 5 0 6 6 2 13 -4 6 1 5 12 -4 20 -17 54 -32 54 -23 0 2
-7 16 -16 29 -13 20 -25 25 -59 25 -28 0 -51 7 -69 21 -14 11 -26 17 -26 12z"/>
<path d="M7173 8773 c9 -2 25 -2 35 0 9 3 1 5 -18 5 -19 0 -27 -2 -17 -5z"/>
<path d="M5195 8747 c-9 -33 -2 -42 30 -42 25 -1 24 7 -8 50 -15 19 -16 19
-22 -8z"/>
<path d="M5920 8658 c0 -7 5 -20 10 -28 8 -12 12 -13 19 -1 7 11 13 11 32 1
13 -7 27 -18 31 -24 4 -6 10 -7 15 -3 14 15 -13 40 -57 53 -25 8 -46 14 -47
14 -2 0 -3 -6 -3 -12z"/>
<path d="M8310 8657 c0 -7 9 -20 20 -30 19 -16 20 -15 31 4 6 12 7 19 1 15 -5
-3 -15 1 -22 9 -15 18 -30 19 -30 2z"/>
<path d="M5339 8629 c-16 -5 -18 -7 -6 -8 9 -1 17 -6 17 -11 0 -6 8 -10 17 -8
10 2 18 -4 19 -12 0 -8 2 -20 2 -26 1 -7 15 -14 32 -16 29 -4 29 -4 12 15 -55
62 -69 72 -93 66z"/>
<path d="M8006 8631 c-3 -5 1 -11 9 -15 8 -3 15 -1 15 4 0 13 -18 22 -24 11z"/>
<path d="M7865 8580 c3 -5 8 -10 11 -10 2 0 4 5 4 10 0 6 -5 10 -11 10 -5 0
-7 -4 -4 -10z"/>
<path d="M8300 8584 c0 -5 14 -29 30 -53 28 -41 35 -69 32 -113 -2 -24 15 -23
23 1 5 16 -3 152 -10 159 -8 8 -75 13 -75 6z"/>
<path d="M8090 8555 c0 -17 2 -18 24 -9 23 9 20 24 -4 24 -11 0 -20 -7 -20
-15z"/>
<path d="M8140 8555 c0 -7 7 -15 15 -19 8 -3 15 -17 15 -31 0 -14 5 -25 11
-25 6 0 9 -7 5 -15 -3 -8 -1 -15 4 -15 6 0 10 9 10 20 0 10 10 28 22 40 18 16
19 20 6 20 -9 0 -23 6 -30 13 -20 20 -58 28 -58 12z"/>
<path d="M5363 8543 c0 -10 8 -27 18 -39 18 -19 18 -21 2 -21 -10 0 -20 3 -23
8 -9 13 -80 22 -80 10 0 -6 -8 -11 -18 -11 -28 0 -34 -11 -16 -31 10 -12 14
-27 10 -42 -5 -20 -10 -23 -36 -19 -17 2 -37 -2 -46 -9 -14 -11 -13 -14 6 -29
13 -9 24 -28 25 -41 2 -22 -1 -24 -39 -24 -34 0 -41 -3 -41 -20 0 -17 -6 -20
-37 -18 -35 2 -61 -20 -35 -30 29 -11 184 25 230 54 54 32 67 35 67 15 0 -12
43 -50 80 -71 12 -6 13 -5 3 6 -15 16 -17 43 -3 34 15 -9 12 6 -5 25 -14 16
-13 17 12 14 l28 -4 -30 15 c-16 8 -38 14 -47 15 -26 0 -22 20 5 20 12 0 30 7
41 15 18 14 18 15 -5 26 -13 6 -34 24 -47 40 l-23 28 35 -14 c25 -11 36 -12
36 -4 0 8 4 8 15 -1 8 -7 13 -15 11 -19 -2 -3 9 -6 24 -7 26 -1 27 1 17 19
-15 26 -59 66 -72 67 -5 0 -19 14 -30 30 -23 34 -32 38 -32 13z m-106 -228 c8
-9 13 -19 10 -22 -6 -5 -37 21 -37 31 0 10 11 6 27 -9z"/>
<path d="M9075 8550 c-3 -5 -1 -10 4 -10 6 0 11 5 11 10 0 6 -2 10 -4 10 -3 0
-8 -4 -11 -10z"/>
<path d="M5499 8529 c13 -11 26 -17 29 -14 8 8 -20 35 -37 35 -12 -1 -11 -5 8
-21z"/>
<path d="M5650 8524 c0 -14 4 -23 9 -20 5 3 7 15 4 26 -7 28 -13 25 -13 -6z"/>
<path d="M5457 8527 c-4 -10 4 -19 24 -27 16 -7 34 -21 40 -31 5 -11 17 -19
26 -19 13 0 14 3 6 11 -6 6 -9 18 -6 26 3 7 2 13 -3 12 -18 -4 -65 14 -73 28
-7 13 -9 13 -14 0z"/>
<path d="M8250 8521 c0 -6 5 -13 10 -16 6 -3 10 -15 10 -25 0 -19 17 -36 26
-27 7 6 -28 77 -38 77 -4 0 -8 -4 -8 -9z"/>
<path d="M9042 8499 c-9 -18 -27 -41 -39 -52 -12 -11 -19 -26 -16 -34 5 -13 2
-13 -16 -4 -12 7 -26 9 -31 6 -6 -3 -10 -2 -10 3 0 25 -129 -19 -155 -53 -6
-7 -19 -14 -30 -16 -11 -3 -26 -17 -33 -32 -7 -15 -19 -27 -27 -27 -19 0 -30
-21 -16 -29 14 -9 106 35 141 66 14 13 28 23 32 23 13 0 9 -18 -4 -23 -10 -4
-10 -6 0 -6 7 -1 15 7 19 17 11 32 36 52 62 51 l26 -1 -24 -7 c-38 -10 -37
-29 1 -26 18 1 43 -1 54 -6 17 -6 24 -3 33 17 6 13 16 24 23 24 9 0 9 3 1 11
-13 13 -1 63 20 88 23 26 29 41 17 41 -6 0 -19 -14 -28 -31z"/>
<path d="M5475 8370 c3 -5 16 -10 28 -9 21 0 21 1 2 9 -28 12 -37 12 -30 0z"/>
<path d="M8589 8321 c7 -5 11 -13 7 -19 -3 -6 -2 -13 3 -16 5 -3 12 2 15 11 6
16 -8 33 -29 33 -5 0 -4 -4 4 -9z"/>
<path d="M8990 8280 c0 -16 28 -32 35 -20 4 6 4 14 1 18 -10 9 -36 11 -36 2z"/>
<path d="M8605 8250 c-3 -5 -1 -10 4 -10 6 0 11 5 11 10 0 6 -2 10 -4 10 -3 0
-8 -4 -11 -10z"/>
<path d="M8925 8121 c-19 -8 -19 -8 2 -19 30 -17 40 -15 46 8 6 22 -11 25 -48
11z"/>
<path d="M6720 8075 c-6 -15 -8 -31 -5 -36 12 -19 13 -69 2 -69 -7 0 -5 -5 4
-10 11 -7 16 -21 14 -45 -1 -25 4 -40 22 -56 14 -14 23 -18 23 -10 0 11 3 11
15 1 8 -6 20 -10 27 -7 7 2 21 -2 31 -11 21 -18 22 -7 3 45 -8 22 -16 56 -17
74 -2 21 -11 39 -24 46 -17 11 -18 12 -2 13 21 0 23 18 2 26 -8 4 -13 10 -10
14 6 10 -24 36 -52 44 -19 6 -25 2 -33 -19z"/>
<path d="M8892 8048 c6 -18 25 -20 31 -3 5 10 0 15 -14 15 -12 0 -19 -5 -17
-12z"/>
<path d="M7809 8013 c0 -5 -2 -16 -4 -25 -2 -9 3 -22 11 -28 10 -9 19 -6 39
14 14 14 23 31 20 36 -7 12 -65 14 -66 3z"/>
<path d="M7757 7973 c-3 -18 0 -34 10 -45 11 -12 13 -27 9 -51 -9 -47 10 -52
59 -16 21 16 33 29 27 29 -7 0 -12 7 -12 15 0 8 -6 14 -12 13 -7 -2 -22 16
-33 39 -23 49 -40 55 -48 16z"/>
<path d="M7740 7806 c0 -15 24 -28 34 -19 5 6 -18 33 -28 33 -3 0 -6 -6 -6
-14z"/>
<path d="M9150 7611 c0 -12 6 -21 16 -21 9 0 14 7 12 17 -5 25 -28 28 -28 4z"/>
<path d="M9311 7604 c0 -11 3 -14 6 -6 3 7 2 16 -1 19 -3 4 -6 -2 -5 -13z"/>
<path d="M8108 7593 c-10 -2 -18 -8 -18 -12 0 -5 -29 -16 -65 -26 -169 -45
-286 -210 -330 -467 -13 -73 -14 -104 -4 -176 6 -48 20 -105 30 -127 17 -37
17 -45 4 -87 -7 -25 -11 -56 -8 -67 5 -20 9 -22 40 -25 6 -1 22 -11 35 -22 39
-35 85 -64 92 -57 3 3 6 1 6 -5 0 -6 10 -14 23 -17 12 -4 31 -15 42 -25 26
-23 81 -40 136 -42 139 -5 281 -1 287 7 4 6 29 22 57 37 27 14 51 32 54 40 2
7 -6 5 -20 -7 l-24 -20 18 22 c11 13 25 19 35 16 9 -4 13 -2 9 4 -4 6 10 25
29 43 36 32 94 139 94 173 0 10 7 32 16 49 11 22 18 69 21 152 6 140 -12 246
-53 308 -13 21 -24 45 -24 54 0 23 -48 104 -61 104 -6 0 -7 -6 -3 -12 5 -8 1
-8 -10 1 -9 8 -24 27 -31 41 -8 15 -36 41 -62 58 -80 50 -263 100 -315 85z
m288 -428 c9 -9 13 -23 9 -35 -4 -13 -1 -22 9 -26 21 -8 20 -34 -1 -50 -22
-16 -48 -17 -74 -3 -20 10 -20 11 -2 24 10 8 28 11 42 8 17 -4 22 -2 17 6 -4
6 -13 11 -19 11 -9 0 -11 13 -9 40 5 44 7 47 28 25z m-70 -36 c1 -36 0 -39
-14 -26 -9 10 -12 24 -8 41 10 39 21 31 22 -15z m-417 11 c17 -8 51 -76 51
-99 0 -5 -18 -18 -40 -30 l-40 -21 -20 22 c-22 24 -23 28 -20 73 4 59 28 78
69 55z m582 -192 c8 -41 15 -55 25 -51 8 3 14 0 14 -7 0 -6 5 -8 10 -5 6 3 10
17 10 31 0 22 2 23 20 12 31 -19 26 -92 -11 -189 -56 -146 -164 -226 -340
-251 -128 -19 -239 18 -340 112 -56 52 -122 220 -113 286 3 16 5 44 5 63 1 19
7 50 14 70 11 31 14 33 20 16 5 -11 14 -27 22 -36 8 -9 16 -36 18 -59 3 -23 8
-47 13 -54 4 -6 16 -37 27 -70 12 -36 28 -64 44 -75 13 -9 40 -33 60 -53 66
-68 167 -89 251 -51 51 22 93 62 52 49 -13 -4 -22 -3 -22 3 0 16 52 52 67 47
9 -4 13 1 11 12 -2 11 4 18 18 20 12 2 26 14 33 28 6 14 15 23 20 20 5 -3 11
9 15 27 3 17 13 57 21 87 8 30 16 86 17 125 l2 70 3 -60 c1 -33 8 -86 14 -117z
m66 132 c-5 -34 -17 -35 -17 -1 0 19 4 30 10 26 5 -3 8 -15 7 -25z"/>
<path d="M8458 6869 c-26 -14 -24 -43 1 -30 19 11 37 41 23 41 -4 0 -15 -5
-24 -11z"/>
<path d="M8030 6570 c0 -5 5 -10 11 -10 5 0 7 5 4 10 -3 6 -8 10 -11 10 -2 0
-4 -4 -4 -10z"/>
<path d="M6213 7555 c-29 -8 -69 -22 -90 -30 -21 -9 -69 -27 -106 -40 -53 -19
-80 -36 -118 -75 -27 -28 -50 -54 -50 -58 -1 -4 -3 -18 -4 -32 -2 -14 -10 -50
-18 -80 -29 -107 -42 -267 -26 -323 5 -19 5 -35 -2 -43 -7 -8 -7 -14 1 -19 6
-4 9 -13 6 -20 -2 -7 2 -16 10 -19 10 -4 13 -13 10 -24 -7 -20 66 -142 84
-142 6 0 10 -6 9 -12 -4 -30 4 -38 69 -74 37 -20 91 -53 120 -72 83 -54 177
-83 277 -83 81 0 91 2 184 45 53 25 105 46 116 46 10 0 24 8 31 18 13 16 13
16 14 -2 0 -26 64 -86 92 -86 13 0 56 16 96 37 57 30 72 42 72 60 0 13 4 23
10 23 13 0 2 72 -15 89 -12 12 -22 12 -72 -4 -32 -10 -77 -31 -100 -46 -24
-16 -43 -27 -43 -24 0 2 18 36 39 77 54 100 73 181 73 303 0 238 -53 381 -184
501 -113 103 -328 151 -485 109z m-64 -202 c8 -14 12 -15 22 -6 16 16 44 -19
53 -67 4 -19 10 -43 12 -52 3 -10 -3 -19 -16 -23 -11 -3 -20 -13 -20 -20 0
-28 -36 -36 -71 -17 -26 14 -32 15 -37 3 -3 -9 -9 -2 -18 18 -19 45 -9 90 36
159 18 27 26 28 39 5z m509 -16 c12 -13 26 -45 31 -71 5 -27 13 -51 17 -55 5
-3 11 -15 12 -26 2 -11 7 -24 12 -30 4 -5 6 -48 4 -95 -4 -106 -6 -120 -16
-114 -4 3 -9 -16 -9 -43 -3 -70 -3 -77 -10 -88 -3 -5 -6 -26 -7 -45 l-2 -35
20 35 c23 42 28 15 5 -29 -8 -16 -11 -31 -8 -34 3 -4 -3 -10 -13 -13 -10 -4
-45 -34 -77 -66 -31 -32 -62 -58 -67 -58 -18 0 -60 -43 -60 -62 0 -75 -68 -77
-217 -4 -28 14 -54 30 -58 35 -3 6 -24 15 -47 22 -106 28 -268 184 -268 257 0
20 3 21 21 12 11 -6 34 -10 50 -8 20 2 40 -6 65 -26 19 -15 37 -26 39 -24 2 1
-4 19 -14 38 -17 36 -51 147 -51 168 0 29 22 7 56 -58 24 -46 54 -85 85 -111
27 -23 49 -38 49 -34 0 4 7 2 15 -5 9 -7 14 -19 11 -25 -4 -13 43 -65 58 -65
4 0 24 -7 43 -17 27 -13 37 -13 43 -4 6 10 12 10 30 1 19 -10 21 -10 17 7 -3
10 -8 35 -12 57 l-6 38 34 -6 c46 -9 83 23 138 115 23 38 43 69 44 69 7 0 -6
-147 -16 -179 -12 -38 -84 -121 -105 -121 -7 0 -16 -4 -19 -10 -4 -6 8 -10 29
-10 25 0 45 9 71 31 78 69 105 167 106 389 2 209 4 190 -34 247 -44 65 -36
100 11 50z m103 -97 c10 -6 19 -15 19 -21 0 -6 -4 -7 -10 -4 -5 3 -10 2 -10
-3 0 -5 -8 -12 -18 -14 -15 -4 -17 0 -14 23 5 33 6 33 33 19z m-143 -60 c11
-21 11 -94 0 -105 -5 -5 -31 -7 -71 -6 -50 1 -65 34 -39 88 26 56 86 68 110
23z m173 -114 c14 -15 11 -23 -11 -29 -20 -5 -28 7 -11 17 10 7 3 44 -11 63
-5 7 -5 14 2 18 6 3 8 11 5 16 -4 5 -3 15 2 22 5 7 9 -10 11 -43 2 -30 7 -59
13 -64z m4 -46 c-3 -5 -12 -10 -18 -10 -7 0 -6 4 3 10 19 12 23 12 15 0z m11
-257 c-32 -89 -66 -151 -104 -190 -23 -24 -46 -43 -51 -43 -6 0 -38 -16 -71
-36 -66 -38 -79 -39 -60 -4 9 17 14 19 20 10 9 -15 30 -5 30 16 0 7 15 26 33
41 17 16 51 47 75 71 23 23 42 39 42 35 0 -5 9 7 20 25 11 18 27 35 35 38 8 4
15 13 15 21 0 15 18 53 25 53 2 0 -2 -17 -9 -37z"/>
<path d="M3733 6824 l-28 -25 33 22 c17 13 32 24 32 26 0 8 -11 1 -37 -23z"/>
<path d="M3845 6841 c-41 -10 -95 -39 -95 -52 0 -6 8 -5 23 2 21 12 21 11 5
-8 -29 -32 -21 -36 15 -9 18 14 54 35 80 46 26 12 47 23 47 25 0 7 -39 4 -75
-4z"/>
<path d="M6994 6816 c-16 -12 -16 -16 -4 -20 25 -9 55 0 58 17 4 21 -27 23
-54 3z"/>
<path d="M7050 6793 c0 -10 19 -40 21 -33 0 3 2 13 4 23 2 9 -3 17 -11 17 -8
0 -14 -3 -14 -7z"/>
<path d="M7480 6673 c-17 -9 -44 -11 -86 -7 -47 5 -67 2 -85 -9 -13 -9 -44
-19 -69 -23 -25 -3 -60 -15 -77 -26 -18 -11 -36 -17 -41 -14 -11 7 -39 -42
-43 -74 -3 -35 19 -79 62 -120 20 -19 44 -49 53 -67 18 -36 68 -57 122 -51 22
3 34 0 34 -8 0 -16 28 -26 33 -11 2 7 3 -13 1 -45 -3 -73 -13 -90 -78 -133
-30 -20 -62 -47 -71 -61 -9 -14 -55 -67 -103 -119 -48 -51 -100 -112 -117
-135 -16 -23 -39 -51 -50 -63 -28 -30 -45 -65 -45 -92 0 -41 24 -33 74 27 27
32 55 58 62 58 7 0 15 6 17 13 3 6 6 2 6 -10 1 -12 6 -25 11 -28 6 -3 10 -17
10 -30 0 -13 5 -27 10 -30 7 -4 9 2 5 17 -3 12 -1 30 4 38 9 13 13 11 31 -8
33 -36 91 -60 135 -58 22 2 50 -3 62 -11 12 -7 44 -14 69 -16 46 -2 48 0 90
50 33 41 45 64 50 103 4 27 11 47 16 44 5 -3 6 -14 3 -24 -4 -13 4 -24 31 -41
34 -21 38 -21 49 -6 15 21 24 21 46 1 17 -16 19 -15 28 7 5 13 5 44 1 69 -11
70 -71 202 -104 230 -49 41 -96 96 -118 137 -44 80 -48 88 -48 103 0 9 31 31
73 52 40 21 92 58 117 83 42 43 44 48 42 98 -1 34 -8 56 -18 64 -20 14 -10 33
18 33 13 0 18 -5 15 -14 -4 -10 -1 -13 9 -9 23 9 11 27 -24 34 -17 3 -48 16
-69 29 -108 64 -116 68 -143 53z m101 -133 c23 -13 26 -77 5 -119 -21 -39 -82
-76 -150 -89 -102 -20 -110 -18 -173 46 -53 53 -104 142 -83 142 5 0 11 -4 15
-10 4 -6 15 -6 31 0 14 6 49 13 77 16 29 4 75 10 102 14 76 11 154 11 176 0z
m-233 -754 c-3 -38 -5 -41 -35 -44 -32 -3 -33 -2 -33 38 0 33 4 42 23 49 37
14 48 3 45 -43z m-168 -112 c0 -8 -4 -12 -10 -9 -5 3 -10 10 -10 16 0 5 5 9
10 9 6 0 10 -7 10 -16z"/>
<path d="M7800 6540 c0 -5 5 -10 11 -10 5 0 7 5 4 10 -3 6 -8 10 -11 10 -2 0
-4 -4 -4 -10z"/>
<path d="M5650 6376 c0 -2 7 -7 16 -10 8 -3 12 -2 9 4 -6 10 -25 14 -25 6z"/>
<path d="M5640 6335 c0 -8 221 -114 254 -121 17 -3 36 -9 41 -12 6 -4 26 -7
45 -9 33 -1 32 0 -25 29 -33 17 -68 37 -77 45 -11 10 -26 13 -47 8 -22 -5 -48
2 -107 29 -80 38 -84 39 -84 31z"/>
<path d="M8660 6300 c0 -5 5 -10 10 -10 6 0 10 5 10 10 0 6 -4 10 -10 10 -5 0
-10 -4 -10 -10z"/>
<path d="M8600 6292 c-39 -10 -120 -45 -120 -51 0 -13 -114 -55 -147 -54 -27
1 -33 -3 -33 -19 0 -15 4 -18 18 -13 9 4 44 11 77 16 55 7 122 20 185 34 14 3
44 9 67 14 24 5 49 14 58 21 13 11 13 14 -1 27 -8 8 -24 13 -34 10 -11 -3 -18
-2 -15 3 6 9 -34 18 -55 12z m25 -22 c-3 -5 -14 -10 -23 -10 -15 0 -15 2 -2
10 20 13 33 13 25 0z m-85 -30 c0 -5 -4 -10 -10 -10 -5 0 -10 5 -10 10 0 6 5
10 10 10 6 0 10 -4 10 -10z"/>
<path d="M6670 6200 c-8 -5 -12 -12 -9 -15 8 -8 39 5 39 16 0 11 -11 11 -30
-1z"/>
<path d="M9170 6189 c0 -5 5 -7 10 -4 6 3 10 8 10 11 0 2 -4 4 -10 4 -5 0 -10
-5 -10 -11z"/>
<path d="M6495 6148 c-37 -19 -39 -21 -18 -29 23 -8 75 11 73 27 -1 5 3 10 9
12 6 2 11 -4 11 -13 0 -13 4 -14 20 -5 61 33 -30 40 -95 8z"/>
<path d="M6673 6104 c-64 -38 -52 -47 18 -14 73 34 80 40 48 40 -13 0 -43 -12
-66 -26z"/>
<path d="M6407 6090 c-7 -28 19 -38 41 -17 18 18 16 22 -14 31 -16 5 -23 2
-27 -14z"/>
<path d="M6055 6090 c3 -5 13 -10 21 -10 8 0 12 5 9 10 -3 6 -13 10 -21 10 -8
0 -12 -4 -9 -10z"/>
<path d="M2985 6071 c-6 -11 9 -23 19 -14 9 9 7 23 -3 23 -6 0 -12 -4 -16 -9z"/>
<path d="M6358 6073 c7 -3 16 -2 19 1 4 3 -2 6 -13 5 -11 0 -14 -3 -6 -6z"/>
<path d="M5958 6063 c-10 -2 -18 -9 -18 -15 0 -5 7 -7 16 -4 9 3 20 6 25 6 5
0 9 5 9 10 0 10 -3 11 -32 3z"/>
<path d="M6114 6045 c-33 -6 -69 -15 -79 -18 -9 -4 -25 -2 -34 5 -9 7 -12 8
-8 3 4 -5 -3 -15 -15 -22 l-23 -12 27 -1 c33 0 194 37 217 50 14 8 13 9 -4 9
-11 -1 -47 -7 -81 -14z"/>
<path d="M6548 6048 c-21 -6 -38 -13 -38 -18 0 -10 47 0 79 16 30 16 13 16
-41 2z"/>
<path d="M6457 6018 c-15 -5 -25 -14 -21 -19 9 -15 28 -10 42 11 7 11 11 20
10 19 -2 0 -15 -5 -31 -11z"/>
<path d="M5760 5990 c0 -22 42 -33 82 -20 22 6 38 13 36 16 -2 2 -20 -1 -38
-6 -26 -8 -37 -6 -50 5 -19 17 -30 19 -30 5z"/>
<path d="M9075 5980 c-3 -5 -1 -10 4 -10 6 0 11 5 11 10 0 6 -2 10 -4 10 -3 0
-8 -4 -11 -10z"/>
<path d="M6668 5950 c-27 -17 -50 -30 -53 -30 -2 0 -28 -22 -57 -50 -40 -38
-49 -53 -40 -62 9 -9 13 -7 18 8 8 21 94 103 109 104 10 1 84 60 75 60 -3 0
-26 -14 -52 -30z"/>
<path d="M3080 5939 c0 -5 5 -7 10 -4 6 3 10 8 10 11 0 2 -4 4 -10 4 -5 0 -10
-5 -10 -11z"/>
<path d="M8342 5863 c14 -33 34 -57 24 -30 -3 10 -6 27 -6 38 0 10 -7 19 -15
19 -12 0 -13 -5 -3 -27z"/>
<path d="M2870 5850 c0 -5 7 -10 16 -10 8 0 12 5 9 10 -3 6 -10 10 -16 10 -5
0 -9 -4 -9 -10z"/>
<path d="M2782 5750 c0 -14 2 -19 5 -12 2 6 2 18 0 25 -3 6 -5 1 -5 -13z"/>
<path d="M5130 5194 c0 -3 7 -12 15 -20 16 -17 18 -14 9 10 -6 15 -24 23 -24
10z"/>
<path d="M5105 5180 c3 -5 8 -10 11 -10 2 0 4 5 4 10 0 6 -5 10 -11 10 -5 0
-7 -4 -4 -10z"/>
<path d="M7703 4980 c-13 -5 -23 -11 -23 -14 0 -7 40 6 46 15 6 10 6 10 -23
-1z"/>
<path d="M2391 4887 c-6 -8 -14 -28 -17 -44 -4 -19 -22 -44 -49 -66 -30 -26
-48 -51 -60 -86 -13 -40 -33 -65 -118 -144 -56 -52 -131 -117 -167 -144 -36
-27 -64 -54 -63 -60 2 -9 -46 -25 -169 -60 -10 -2 -18 -10 -18 -17 0 -7 -24
-18 -52 -26 -63 -16 -106 -59 -60 -61 14 0 14 -2 -3 -9 -11 -5 -29 -9 -40 -9
-17 -1 -18 1 -5 9 10 8 -8 9 -59 4 -60 -6 -76 -4 -85 8 -9 13 -21 14 -61 7
-123 -22 -124 -22 -130 -7 -3 8 -18 16 -33 16 -15 1 -38 4 -52 6 -13 3 -27 2
-30 -2 -14 -19 -72 -52 -81 -46 -8 4 -7 9 2 15 11 7 10 9 -3 9 -9 0 -18 5 -20
11 -6 17 -59 19 -89 3 -16 -8 -40 -14 -54 -14 -28 0 -133 -32 -180 -56 -100
-50 -144 -87 -170 -145 -10 -21 -22 -39 -27 -39 -5 0 -6 -4 -3 -10 3 -5 -1
-20 -9 -32 -7 -13 -17 -34 -21 -48 -4 -14 -15 -34 -25 -45 -9 -11 -23 -41 -30
-67 -7 -28 -18 -48 -26 -48 -30 0 16 -99 76 -165 16 -16 45 -49 65 -72 21 -24
45 -43 54 -43 9 0 28 -7 44 -14 26 -14 28 -14 43 16 11 20 12 34 6 40 -7 7 -7
19 -1 35 5 14 6 29 3 34 -3 6 -1 15 4 22 14 18 23 77 11 77 -5 0 -37 -28 -70
-62 -33 -33 -57 -53 -53 -44 6 16 5 17 -15 4 -20 -12 -25 -10 -48 16 -24 28
-25 35 -21 121 3 65 9 100 21 118 9 15 17 35 17 46 0 28 170 222 219 249 22
13 47 33 56 44 8 12 18 19 21 15 4 -4 13 1 20 12 11 15 24 18 84 15 49 -2 75
-8 87 -19 14 -14 14 -18 2 -26 -19 -13 93 -4 155 11 32 9 50 9 55 3 10 -16 62
-40 106 -48 22 -5 45 -9 50 -11 6 -1 36 -6 68 -12 47 -7 60 -6 64 4 3 8 15 14
27 14 22 0 46 17 46 32 0 4 -8 5 -17 2 -15 -5 -16 -4 -3 5 8 6 23 11 33 11 10
0 40 11 67 25 27 14 73 32 102 40 56 15 123 37 198 65 45 16 64 48 26 42 -17
-3 -18 -2 -6 13 7 9 22 21 33 27 17 9 19 8 13 -8 -7 -17 -6 -17 13 0 11 10 19
22 16 26 -2 4 9 6 26 5 31 -2 69 32 69 61 0 8 7 14 15 14 8 0 15 5 15 10 0 6
11 15 25 20 25 9 35 40 14 40 -6 0 3 13 20 29 17 16 31 34 31 40 0 6 7 7 17 4
11 -4 14 -3 9 5 -4 7 -2 12 3 12 6 0 11 20 11 46 0 47 13 84 31 84 6 0 7 -4 4
-10 -3 -5 -1 -10 5 -10 11 0 26 32 42 90 27 101 27 130 -1 97z m-251 -408 c0
-6 -4 -7 -10 -4 -5 3 -10 11 -10 16 0 6 5 7 10 4 6 -3 10 -11 10 -16z"/>
<path d="M8222 4631 c-12 -58 -6 -131 10 -131 5 0 7 4 4 8 -2 4 2 43 10 87 7
44 14 81 14 81 0 1 -6 4 -13 7 -9 3 -17 -12 -25 -52z"/>
<path d="M8300 4615 c0 -8 2 -15 4 -15 2 0 6 7 10 15 3 8 1 15 -4 15 -6 0 -10
-7 -10 -15z"/>
<path d="M8290 4531 c0 -33 4 -62 9 -65 5 -3 12 -27 15 -53 4 -27 10 -57 13
-67 5 -18 7 -18 24 5 24 31 24 41 -1 57 -16 10 -19 19 -14 56 5 35 3 47 -12
62 -11 11 -18 27 -16 36 2 9 -2 19 -7 23 -7 4 -11 -14 -11 -54z"/>
<path d="M4951 4563 c0 -4 4 -17 9 -28 8 -19 9 -19 9 2 1 12 -3 25 -9 28 -5 3
-10 3 -9 -2z"/>
<path d="M2592 4530 c0 -14 2 -19 5 -12 2 6 2 18 0 25 -3 6 -5 1 -5 -13z"/>
<path d="M2593 4421 c4 -18 7 -40 7 -47 0 -8 5 -14 10 -14 17 0 11 66 -7 81
-15 13 -16 11 -10 -20z"/>
<path d="M4690 4311 c0 -5 5 -13 10 -16 6 -3 10 -2 10 4 0 5 -4 13 -10 16 -5
3 -10 2 -10 -4z"/>
<path d="M4961 4283 c-18 -47 -30 -113 -20 -119 12 -7 25 29 34 94 8 58 3 66
-14 25z"/>
<path d="M6379 4218 c-1 -7 -3 -25 -5 -40 -1 -16 1 -28 7 -28 5 0 9 18 9 40 0
36 -8 57 -11 28z"/>
<path d="M6370 4086 c0 -8 5 -18 10 -21 6 -3 10 3 10 14 0 12 -4 21 -10 21 -5
0 -10 -6 -10 -14z"/>
<path d="M7080 4049 c0 -25 -6 -46 -15 -53 -12 -10 -12 -14 5 -36 l20 -25 0
78 c0 42 -2 77 -5 77 -3 0 -5 -19 -5 -41z"/>
<path d="M6026 4017 c3 -10 9 -15 12 -12 3 3 0 11 -7 18 -10 9 -11 8 -5 -6z"/>
<path d="M5950 4000 c-19 -12 -7 -22 21 -18 19 2 20 5 8 15 -9 7 -20 9 -29 3z"/>
<path d="M6008 3956 c-3 -14 -1 -26 4 -26 14 0 22 30 11 41 -7 7 -12 2 -15
-15z"/>
<path d="M6055 3970 c3 -5 10 -10 16 -10 5 0 9 5 9 10 0 6 -7 10 -16 10 -8 0
-12 -4 -9 -10z"/>
<path d="M8461 3973 c0 -4 4 -17 9 -28 8 -19 9 -19 9 2 1 12 -3 25 -9 28 -5 3
-10 3 -9 -2z"/>
<path d="M6397 3923 c-4 -3 -7 -11 -7 -17 0 -6 5 -5 12 2 6 6 9 14 7 17 -3 3
-9 2 -12 -2z"/>
<path d="M7082 3890 c-12 -19 -18 -37 -13 -40 5 -3 11 -15 15 -27 4 -13 13
-23 20 -23 8 0 19 -6 25 -13 8 -11 6 -19 -9 -37 -11 -12 -17 -27 -14 -32 4 -6
10 -5 15 3 16 25 10 -24 -7 -56 -8 -16 -13 -39 -10 -52 9 -35 50 -93 63 -88 7
2 15 0 18 -5 4 -6 10 -10 15 -10 11 0 0 123 -12 131 -6 4 -9 35 -8 70 1 35 1
73 1 84 -2 19 -3 18 -11 -3 l-10 -22 -20 20 c-11 11 -18 25 -15 31 4 5 1 16
-5 24 -7 8 -10 20 -8 27 3 7 2 22 -2 33 -6 18 -9 17 -28 -15z"/>
<path d="M7171 3866 c-1 -13 -6 -16 -18 -11 -15 5 -16 4 -5 -6 15 -16 37 2 29
23 -4 8 -6 6 -6 -6z"/>
<path d="M6130 3866 c0 -2 7 -7 16 -10 8 -3 12 -2 9 4 -6 10 -25 14 -25 6z"/>
<path d="M7037 3822 c-10 -10 -17 -22 -17 -27 0 -5 9 1 21 14 12 12 19 24 17
27 -3 2 -12 -4 -21 -14z"/>
<path d="M6915 3750 c-3 -5 -1 -10 4 -10 6 0 11 5 11 10 0 6 -2 10 -4 10 -3 0
-8 -4 -11 -10z"/>
<path d="M7620 3660 c-8 -5 -31 -16 -50 -25 -20 -8 -51 -29 -69 -45 -26 -24
-31 -34 -21 -45 10 -11 16 -11 45 1 19 8 50 14 70 14 19 0 35 5 35 11 0 5 -5
7 -12 3 -7 -5 -8 -3 -4 5 5 7 0 18 -10 27 -20 15 -19 17 33 51 21 14 6 16 -17
3z"/>
<path d="M7690 3619 c-19 -10 -30 -18 -23 -19 18 0 63 22 63 32 0 4 -1 8 -2 7
-2 -1 -19 -9 -38 -20z"/>
<path d="M7938 3563 c6 -2 18 -2 25 0 6 3 1 5 -13 5 -14 0 -19 -2 -12 -5z"/>
<path d="M5354 3485 c3 -8 1 -15 -5 -15 -6 0 -6 -7 1 -19 5 -11 10 -30 11 -43
0 -21 1 -22 8 -3 10 26 2 95 -11 95 -6 0 -8 -7 -4 -15z"/>
<path d="M8255 3330 c-13 -6 -15 -9 -5 -9 11 -1 12 -3 3 -9 -8 -5 -9 -13 -3
-22 7 -11 12 -12 20 -4 7 7 27 10 46 7 45 -6 44 13 -2 32 -20 8 -37 15 -38 14
0 0 -10 -4 -21 -9z"/>
<path d="M5360 3290 c0 -5 5 -10 11 -10 5 0 7 5 4 10 -3 6 -8 10 -11 10 -2 0
-4 -4 -4 -10z"/>
<path d="M7895 3271 c-86 -21 -95 -26 -95 -54 1 -20 2 -21 14 -4 7 9 22 17 32
17 10 0 31 7 46 14 30 16 47 6 23 -14 -8 -7 -12 -16 -9 -21 3 -5 -1 -9 -9 -9
-17 0 -27 -21 -27 -56 0 -15 6 -24 16 -24 8 0 12 5 9 10 -9 14 4 52 15 45 11
-7 9 -46 -3 -62 -6 -9 -6 -13 1 -13 13 0 34 69 26 82 -3 5 -2 22 1 39 5 22 15
34 37 41 22 8 26 13 16 19 -16 10 -8 11 -93 -10z"/>
<path d="M8261 3254 c0 -11 3 -14 6 -6 3 7 2 16 -1 19 -3 4 -6 -2 -5 -13z"/>
<path d="M7818 3183 c6 -2 18 -2 25 0 6 3 1 5 -13 5 -14 0 -19 -2 -12 -5z"/>
<path d="M7825 3100 c-4 -6 5 -10 19 -10 14 0 26 5 26 10 0 6 -9 10 -19 10
-11 0 -23 -4 -26 -10z"/>
<path d="M10080 80 l0 -80 80 0 80 0 0 80 0 80 -80 0 -80 0 0 -80z"/>
</g>
</svg>
